<svg width="137" height="18" fill="none" xmlns="http://www.w3.org/2000/svg"><path d="M5.694 7.915a.455.455 0 0 0-.629-.085.331.331 0 0 0-.13.17l-3.902 7.68a.455.455 0 0 0 .217.617c.065.022.13.043.217.043h5.44c.174 0 .347-.085.412-.255 1.15-2.383.434-6-1.625-8.17ZM8.722.27a10.548 10.548 0 0 0-.626 10.432l2.704 5.372c.09.155.246.266.425.266h5.61a.494.494 0 0 0 .492-.488.782.782 0 0 0-.045-.222S9.728.625 9.549.248a.45.45 0 0 0-.604-.2.534.534 0 0 0-.223.222Z" fill="#787878"/><path fill-rule="evenodd" clip-rule="evenodd" d="M86.103 12.784v.013L75.87 6.839V6.8l10.232 5.983Zm0 0 .022.013c0 2.623-1.493 4.403-5.204 4.403-2.635 0-4.04-.632-5.116-1.194v-3.397c1.58.96 3.36 1.476 5.16 1.5 1.493 0 1.932-.493 1.932-1.219 0-.75-.44-1.124-2.569-1.592-3.535-.745-4.446-2.392-4.457-4.46l-.066-.037c0-2.624 1.778-4.217 5.226-4.217a9.272 9.272 0 0 1 4.391.96v3.28c-1.427-.703-2.942-1.195-4.48-1.195-1.273 0-1.953.352-1.953 1.172 0 .632.483 1.1 2.393 1.545 3.485.795 4.717 1.964 4.72 4.438Z" fill="#787878"/><path d="M124.824 2.58v13.76h2.941V5.855l1.232 2.775 4.173 7.71h3.694V2.58h-2.942v8.893l-1.117-2.593-3.352-6.3h-4.629Zm-22.36 0h3.44v13.76h-3.44zm-2.579 10.217c0-2.483-1.327-3.654-5.093-4.45-2.06-.446-2.582-.914-2.582-1.546 0-.82.734-1.172 2.108-1.172 1.658 0 3.293.492 4.832 1.195v-3.28a10.665 10.665 0 0 0-4.737-.96c-3.719 0-5.638 1.593-5.638 4.217 0 2.084.972 3.747 4.809 4.497 2.297.468 2.771.843 2.771 1.592 0 .726-.474 1.218-2.084 1.218a11.645 11.645 0 0 1-5.567-1.499v3.397c1.161.562 2.677 1.194 5.52 1.194 4.073-.023 5.66-1.78 5.66-4.403ZM50.865 2.58v13.76h6.7l1.04-2.98h-4.459V2.58h-3.28Zm-12.899 0v2.98h3.477v10.78h3.145V5.56h3.698V2.58h-10.32Z" fill="#787878"/><path fill-rule="evenodd" clip-rule="evenodd" d="M28.981 2.58h4.21l4.775 13.76h-3.644l-.678-2.32a8.9 8.9 0 0 1-5.115 0l-.68 2.32h-3.643l4.775-13.76Zm.34 8.711c.588.16 1.177.25 1.765.25.589 0 1.177-.068 1.765-.25l-1.765-6.004-1.765 6.004ZM64.24 2.58h4.21l4.775 13.76h-3.643l-.68-2.32a8.9 8.9 0 0 1-5.114 0l-.679 2.32h-3.644l4.776-13.76Zm.34 8.711a6.75 6.75 0 0 0 1.765.25c.589 0 1.177-.068 1.766-.25l-1.766-6.004-1.765 6.004Zm48.679-8.711h4.21l4.775 13.76H118.6l-.679-2.32c-1.674.5-3.44.5-5.114 0l-.679 2.32h-3.644l4.775-13.76Zm.34 8.711a6.75 6.75 0 0 0 1.765.25c.588 0 1.177-.068 1.765-.25l-1.765-6.004-1.765 6.004Z" fill="#787878"/></svg>