<svg width="97" height="20" fill="none" xmlns="http://www.w3.org/2000/svg"><path d="M16.595 18.053A8.05 8.05 0 0 1 8.545 10a8.047 8.047 0 0 1 8.05-8.049c1.567 0 3.03.447 4.266 1.222L16.595 10l8.031-4.637c-.872-1.39-2.124-2.589-3.637-3.498C19.063.713 16.384 0 13.422 0 9.197 0 5.491 1.535 3.423 3.835 1.893 5.535.982 7.674.982 10c0 2.329.91 4.47 2.441 6.17C5.496 18.474 9.147 20 13.303 20c4.155 0 7.805-1.528 9.88-3.829.113-.126.223-.254.327-.387l-.313-1.174a8.048 8.048 0 0 1-6.602 3.443Zm26.626 1.463L39.851 6.94a4.753 4.753 0 0 0-6.222-3.239l-7.257 2.64h7.464l1.275 4.762a7.049 7.049 0 0 0-4.613-1.712c-3.503 0-6.34 2.347-6.34 5.243 0 2.897 2.837 5.248 6.34 5.248a7.554 7.554 0 0 0 6.128-3.132l.74 2.765h5.855ZM32.94 17.563a2.926 2.926 0 1 1 0-5.855 2.926 2.926 0 0 1 0 5.855ZM56.964 3.418c-.442 0-.86.097-1.233.273l-4.66 2.171a2.929 2.929 0 0 0-4.126-2.171l-5.688 2.65h4v13.175h5.854V7.806a1.465 1.465 0 1 1 2.928 0v11.71h5.853V6.341a2.925 2.925 0 0 0-2.928-2.923m21.952 8.292a8.29 8.29 0 0 1-8.29 8.29 8.293 8.293 0 0 1-8.295-8.29 8.294 8.294 0 0 1 8.295-8.292 8.291 8.291 0 0 1 8.29 8.291Zm-7.947-5.776a1.826 1.826 0 0 0-2.238-1.292 1.83 1.83 0 0 0-1.295 2.24l2.844 10.602a1.833 1.833 0 0 0 2.239 1.297 1.833 1.833 0 0 0 1.293-2.243L70.969 5.934Z" fill="#787878"/><path d="M93.679 3.418c-.444 0-.865.097-1.243.273L87.78 5.862a2.927 2.927 0 0 0-4.126-2.171l-5.686 2.65h3.998v13.175h5.853V7.806a1.464 1.464 0 1 1 2.927 0v11.71h5.858V6.341a2.926 2.926 0 0 0-2.926-2.923" fill="#787878"/></svg>