<svg width="768" height="768" fill="none" xmlns="http://www.w3.org/2000/svg"><g opacity=".6"><path opacity=".8" d="M383.5 726.999a339.912 339.912 0 0 1-133.31-26.958 341.174 341.174 0 0 1-108.877-73.501 341.801 341.801 0 0 1-73.402-109.035A341.279 341.279 0 0 1 41.001 384a341.279 341.279 0 0 1 26.91-133.505 341.73 341.73 0 0 1 73.402-109.035A341.178 341.178 0 0 1 250.19 67.95 339.919 339.919 0 0 1 383.5 41a339.919 339.919 0 0 1 133.31 26.95 341.26 341.26 0 0 1 108.877 73.51 341.743 341.743 0 0 1 73.393 109.035A341.138 341.138 0 0 1 725.999 384a341.138 341.138 0 0 1-26.919 133.505 341.77 341.77 0 0 1-73.393 109.035 341.218 341.218 0 0 1-108.877 73.501 339.912 339.912 0 0 1-133.31 26.958Zm0-685.123C195.126 41.876 41.875 195.351 41.875 384c0 188.649 153.251 342.132 341.625 342.132s341.633-153.457 341.633-342.123c0-188.667-153.259-342.124-341.633-342.124v-.009Z" fill="url(#a)"/><path opacity=".6" d="M384.008 767.999a381.526 381.526 0 0 1-149.473-30.18 382.523 382.523 0 0 1-122.054-82.289 382.662 382.662 0 0 1-82.282-122.06A381.58 381.58 0 0 1 .001 384a381.641 381.641 0 0 1 30.198-149.487 382.663 382.663 0 0 1 82.299-122.06 382.625 382.625 0 0 1 122.037-82.272A381.666 381.666 0 0 1 384.008.001a381.61 381.61 0 0 1 149.474 30.18 382.809 382.809 0 0 1 122.063 82.289 382.81 382.81 0 0 1 82.299 122.043A381.637 381.637 0 0 1 767.999 384a381.569 381.569 0 0 1-30.155 149.47 382.823 382.823 0 0 1-82.299 122.06 382.643 382.643 0 0 1-122.063 82.289 381.452 381.452 0 0 1-149.474 30.18Zm0-767.14C172.74.859.858 172.745.858 384c0 211.255 171.882 383.141 383.15 383.141 211.269 0 383.133-171.878 383.133-383.141C767.141 172.745 595.277.859 384.008.859Z" fill="url(#b)"/><path d="M395.996 698.999a301.604 301.604 0 0 1-117.931-23.771 302.08 302.08 0 0 1-96.325-64.813 301.384 301.384 0 0 1-64.928-96.175 300.057 300.057 0 0 1-23.811-117.744 300.099 300.099 0 0 1 23.811-117.745 301.498 301.498 0 0 1 64.928-96.157 301.952 301.952 0 0 1 96.325-64.822 301.468 301.468 0 0 1 117.931-23.771 301.412 301.412 0 0 1 117.939 23.771 301.946 301.946 0 0 1 96.316 64.822 301.658 301.658 0 0 1 64.938 96.157A300.275 300.275 0 0 1 699 396.496a300.274 300.274 0 0 1-23.811 117.744 301.505 301.505 0 0 1-64.938 96.175 302.062 302.062 0 0 1-96.316 64.83 301.601 301.601 0 0 1-117.939 23.754Zm0-604.142c-166.6 0-302.137 135.349-302.137 301.639 0 166.29 135.572 301.647 302.137 301.647s302.145-135.349 302.145-301.647c0-166.299-135.546-301.639-302.145-301.639Z" fill="url(#c)"/></g><defs><linearGradient id="a" x1="41.018" y1="384.009" x2="725.991" y2="384.009" gradientUnits="userSpaceOnUse"><stop offset=".01" stop-color="#ECC63D"/><stop offset=".25" stop-color="#FDF9CB"/><stop offset=".31" stop-color="#F4EDBA"/><stop offset=".42" stop-color="#DECC8D"/><stop offset=".57" stop-color="#B99845"/><stop offset=".6" stop-color="#B38F39"/><stop offset=".87" stop-color="#E5D389"/><stop offset="1" stop-color="#FDF9CB"/></linearGradient><linearGradient id="b" x1=".001" y1="384" x2="768.016" y2="384" gradientUnits="userSpaceOnUse"><stop offset=".01" stop-color="#ECC63D"/><stop offset=".25" stop-color="#FDF9CB"/><stop offset=".31" stop-color="#F4EDBA"/><stop offset=".42" stop-color="#DECC8D"/><stop offset=".57" stop-color="#B99845"/><stop offset=".6" stop-color="#B38F39"/><stop offset=".87" stop-color="#E5D389"/><stop offset="1" stop-color="#FDF9CB"/></linearGradient><linearGradient id="c" x1="93.97" y1="420.978" x2="698.017" y2="371.861" gradientUnits="userSpaceOnUse"><stop offset=".01" stop-color="#ECC63D"/><stop offset=".25" stop-color="#FDF9CB"/><stop offset=".31" stop-color="#F4EDBA"/><stop offset=".42" stop-color="#DECC8D"/><stop offset=".57" stop-color="#B99845"/><stop offset=".6" stop-color="#B38F39"/><stop offset=".87" stop-color="#E5D389"/><stop offset="1" stop-color="#FDF9CB"/></linearGradient></defs></svg>