<svg width="96" height="30" fill="none" xmlns="http://www.w3.org/2000/svg"><path fill-rule="evenodd" clip-rule="evenodd" d="M59.854 22.392c-5.558 4.47-13.616 6.848-20.554 6.848-9.724 0-18.48-3.917-25.108-10.44-.52-.511-.056-1.211.57-.814 7.15 4.534 15.99 7.265 25.122 7.265 6.16 0 12.931-1.393 19.162-4.274.94-.434 1.727.675.808 1.415Z" fill="#787878"/><path fill-rule="evenodd" clip-rule="evenodd" d="M62.509 20.261c-.728-.868-4.813-.411-6.648-.207-.555.062-.642-.39-.14-.717 3.258-2.13 8.596-1.515 9.217-.802.625.72-.164 5.701-3.218 8.078-.47.366-.916.172-.708-.312.687-1.596 2.225-5.172 1.497-6.04ZM55.156 3.595v-2.22a.554.554 0 0 1 .574-.562h10.14c.325 0 .585.23.586.56v1.903c-.003.32-.277.736-.764 1.397l-5.253 7.356c1.95-.045 4.012.241 5.784 1.218.4.22.507.547.538.866v2.368c0 .326-.364.704-.746.507-3.122-1.603-7.264-1.778-10.715.02-.353.184-.722-.188-.722-.514v-2.251c0-.36.007-.976.377-1.526l6.086-8.563h-5.299c-.324 0-.584-.227-.586-.56ZM20.628 17.057h-2.894a.546.546 0 0 1-.517-.491l.002-14.903c0-.298.25-.537.558-.537h2.695a.546.546 0 0 1 .526.5v1.946h.054c.703-1.882 2.026-2.76 3.81-2.76 1.81 0 2.944.878 3.754 2.76.703-1.882 2.296-2.76 3.998-2.76 1.216 0 2.54.502 3.35 1.631.919 1.254.73 3.073.73 4.673l-.002 9.404c0 .298-.25.537-.559.537h-2.89a.544.544 0 0 1-.52-.535V8.62c0-.627.054-2.195-.082-2.791-.216-1.004-.864-1.286-1.701-1.286-.703 0-1.432.47-1.73 1.223-.297.753-.27 2.007-.27 2.854v7.9c0 .297-.25.536-.558.536h-2.89a.544.544 0 0 1-.52-.535L24.97 8.62c0-1.662.27-4.108-1.783-4.108-2.08 0-1.999 2.383-1.999 4.108v7.9c0 .297-.25.536-.56.536Zm55.04-13.923c-2.112 0-2.246 3.004-2.246 4.877 0 1.874-.026 5.88 2.22 5.88 2.22 0 2.326-3.23 2.326-5.201 0-1.292-.053-2.843-.428-4.07-.32-1.067-.963-1.486-1.872-1.486ZM75.642 0c4.252 0 6.55 3.812 6.55 8.657 0 4.684-2.539 8.4-6.55 8.4-4.172 0-6.445-3.812-6.445-8.561 0-4.781 2.3-8.496 6.445-8.496ZM87.31 17.057h-2.956c-.297-.02-.532-.25-.532-.535l-.005-14.909c.025-.272.27-.487.57-.487h2.751a.561.561 0 0 1 .527.417v2.28h.056c.83-2.039 1.993-3.01 4.042-3.01 1.33 0 2.631.47 3.462 1.755C96 3.76 96 5.768 96 7.21v9.377c-.033.265-.275.47-.568.47h-2.974a.555.555 0 0 1-.528-.47V8.495c0-1.63.194-4.014-1.856-4.014-.72 0-1.384.47-1.716 1.192-.415.91-.471 1.819-.471 2.822v8.025c-.005.298-.262.537-.578.537Zm-36.072-.399a.61.61 0 0 1-.696.068c-.978-.814-1.154-1.19-1.688-1.965-1.617 1.65-2.763 2.143-4.857 2.143-2.48 0-4.41-1.531-4.41-4.595 0-2.393 1.296-4.02 3.142-4.819 1.599-.702 3.83-.83 5.54-1.021v-.383c0-.702.055-1.532-.359-2.138-.358-.543-1.047-.766-1.653-.766-1.124 0-2.123.576-2.368 1.77-.051.266-.245.529-.512.542l-2.855-.309c-.241-.054-.509-.248-.44-.616C40.74 1.102 43.868.054 46.67.054c1.433 0 3.307.383 4.436 1.468 1.434 1.34 1.296 3.128 1.296 5.075v4.593c0 1.382.573 1.988 1.112 2.733.188.268.23.587-.01.783-.602.505-1.67 1.434-2.26 1.958l-.006-.006Zm-2.97-7.19c0 1.15.028 2.107-.551 3.129-.468.83-1.212 1.34-2.04 1.34-1.129 0-1.79-.862-1.79-2.138 0-2.511 2.25-2.968 4.381-2.968v.638Zm-35.645 7.19a.61.61 0 0 1-.696.068c-.979-.814-1.154-1.19-1.689-1.965-1.617 1.65-2.762 2.143-4.856 2.143-2.48 0-4.41-1.531-4.41-4.595 0-2.393 1.296-4.02 3.142-4.819 1.598-.702 3.83-.83 5.539-1.021v-.383c0-.702.055-1.532-.358-2.138-.359-.543-1.048-.766-1.654-.766-1.123 0-2.122.576-2.367 1.77-.052.266-.245.529-.512.542l-2.855-.309c-.241-.054-.51-.248-.44-.616C2.123 1.102 5.251.054 8.054.054c1.433 0 3.307.383 4.437 1.468 1.433 1.34 1.296 3.128 1.296 5.075v4.593c0 1.382.573 1.988 1.111 2.733.188.268.23.587-.01.783-.6.505-1.67 1.434-2.258 1.958l-.007-.006Zm-2.97-7.19c0 1.15.028 2.107-.551 3.129-.469.83-1.213 1.34-2.04 1.34-1.13 0-1.79-.862-1.79-2.138 0-2.511 2.25-2.968 4.38-2.968v.638Z" fill="#787878"/></svg>