<svg width="99" height="32" fill="none" xmlns="http://www.w3.org/2000/svg"><path d="M42.592 16.84c0 4.604-3.602 7.996-8.022 7.996s-8.022-3.392-8.022-7.996c0-4.636 3.602-7.996 8.022-7.996s8.022 3.36 8.022 7.996Zm-3.512 0c0-2.877-2.087-4.845-4.51-4.845-2.423 0-4.51 1.968-4.51 4.845 0 2.848 2.087 4.845 4.51 4.845 2.423 0 4.51-2 4.51-4.845Zm20.816 0c0 4.604-3.602 7.996-8.022 7.996s-8.021-3.392-8.021-7.996c0-4.633 3.602-7.996 8.021-7.996 4.42 0 8.022 3.36 8.022 7.996Zm-3.511 0c0-2.877-2.088-4.845-4.51-4.845-2.423 0-4.51 1.968-4.51 4.845 0 2.848 2.087 4.845 4.51 4.845 2.422 0 4.51-2 4.51-4.845ZM76.48 9.327v14.356c0 5.905-3.483 8.317-7.6 8.317-3.876 0-6.208-2.592-7.088-4.712l3.057-1.273c.545 1.302 1.879 2.837 4.027 2.837 2.636 0 4.269-1.625 4.269-4.686v-1.15h-.123c-.786.97-2.3 1.817-4.21 1.817-3.999 0-7.662-3.483-7.662-7.964 0-4.514 3.663-8.025 7.661-8.025 1.907 0 3.422.847 4.211 1.788h.123V9.33h3.335v-.003Zm-3.086 7.542c0-2.816-1.879-4.874-4.269-4.874-2.423 0-4.452 2.058-4.452 4.874 0 2.787 2.03 4.816 4.452 4.816 2.39 0 4.269-2.03 4.269-4.816ZM81.977.912v23.434h-3.425V.912h3.425Zm13.347 18.56 2.725 1.817c-.88 1.301-3 3.544-6.662 3.544-4.543 0-7.935-3.512-7.935-7.996 0-4.756 3.421-7.997 7.542-7.997 4.15 0 6.18 3.303 6.843 5.087l.364.909-10.69 4.427c.819 1.604 2.091 2.422 3.876 2.422 1.788 0 3.028-.88 3.937-2.213Zm-8.39-2.877 7.146-2.967c-.393-.999-1.576-1.695-2.967-1.695-1.785 0-4.269 1.576-4.179 4.662ZM13.585 14.76v-3.393h11.432c.111.591.17 1.291.17 2.048 0 2.545-.697 5.693-2.94 7.935-2.18 2.271-4.967 3.483-8.659 3.483-6.843 0-12.597-5.574-12.597-12.417C.991 5.574 6.745 0 13.588 0c3.786 0 6.482 1.485 8.508 3.421l-2.393 2.394c-1.453-1.363-3.422-2.422-6.118-2.422-4.997 0-8.905 4.027-8.905 9.023 0 4.997 3.908 9.024 8.905 9.024 3.24 0 5.087-1.301 6.269-2.484.959-.959 1.59-2.329 1.839-4.2l-8.109.004Z" fill="#787878"/></svg>