<svg width="599" height="376" fill="none" xmlns="http://www.w3.org/2000/svg"><path d="m167.618 184.682-.224-.064.067-.106.18.042-.023.128Zm15.063-3.848-.494-.107.067-.276.494.127-.067.256Zm14.973-4.466c.202.213 0 .426-.315.426-.314 0-.92-.341-.696-.532h.158a1.005 1.005 0 0 1 .853.191v-.085Zm14.523-4.466c.315.255.135.531-.336.531-.472 0-1.212-.382-.943-.659h.157a1.393 1.393 0 0 1 1.122.234v-.106Zm14.187-4.7c.337.234.292.553-.247.617-.538.064-1.549-.34-1.122-.723a.393.393 0 0 1 0-.128 1.647 1.647 0 0 1 1.279.234h.09Zm13.918-4.955c.427.277.359.617-.157.702-.853.17-1.998-.383-1.661-.787.336-.404 0 0 .202-.148.272-.068.555-.082.833-.041.278.04.545.133.783.274Zm13.536-5.187c.561.319.516.702 0 .829-.988.213-2.424-.404-2.088-.871a.642.642 0 0 1 .202-.171 2.64 2.64 0 0 1 1.908.213h-.022Zm13.11-5.401c.606.319.651.68 0 .872-.988.319-2.806-.319-2.469-.872a.447.447 0 0 1 .247-.191 3.059 3.059 0 0 1 2.132.191h.09Zm12.638-5.593c.674.298.763.68.202.872-.987.34-2.985-.277-2.716-.83a.399.399 0 0 1 .225-.191 3.47 3.47 0 0 1 2.244.149h.045Zm12.189-5.828c.741.277.898.681.337.893-1.01.383-3.21-.212-2.986-.808a.49.49 0 0 1 .225-.191 3.664 3.664 0 0 1 2.424 0v.106Zm11.808-6.038c.786.277.965.681.427.894-.988.404-3.278-.128-3.098-.723 0 0 0-.149.202-.213a4.08 4.08 0 0 1 2.469 0v.042Zm11.089-6.229c.853.255 1.1.659.561.914-1.055.447-3.636-.127-3.322-.744a.304.304 0 0 1 .157-.17 4.184 4.184 0 0 1 2.604 0Zm10.528-6.359c.898.234 1.19.638.673.872-.965.468-3.659 0-3.434-.659 0 0 0-.106.135-.149a4.373 4.373 0 0 1 2.626 0v-.064Zm9.81-6.38c.875.212 1.212.574.741.808-.921.467-3.57 0-3.39-.553v-.17a4.368 4.368 0 0 1 2.537 0l.112-.085Zm8.822-6.401c.898.17 1.28.489.831.744-.808.446-3.412 0-3.345-.468a.202.202 0 0 1 0-.149 4.209 4.209 0 0 1 2.424-.127h.09Zm8.171-6.443c.876.149 1.257.447.876.681-.741.446-3.48 0-3.278-.426a4.097 4.097 0 0 1 2.245-.17l.157-.085Zm7.363-6.442c.83.127 1.234.404.92.595-.314.192-3.232.17-3.098-.319a3.943 3.943 0 0 1 2.11-.191l.068-.085Zm6.6-6.421c.763 0 1.167.319.898.51-.27.192-2.941.213-2.896-.234a3.303 3.303 0 0 1 1.953-.212l.045-.064Zm5.814-6.424c.718 0 1.1.255.875.425-.224.17-2.626.234-2.626-.148.247-.256 1.167-.277 1.706-.213l.045-.064Zm5.073-6.4c.606 0 .965.191.785.34-.179.15-2.244.234-2.244 0a2.9 2.9 0 0 1 1.459-.191v-.15Zm4.288-6.357c.493 0 .785.149.651.277-.135.127-1.819.19-1.774 0 .135-.17.741-.213 1.123-.192v-.085Zm4.107-6.169-.786.17-.583-.17.74-.148.629.148Zm2.56-6.335-.427.106-.337-.085.404-.085.36.064Zm1.817-6.252-.089.021-.09-.02.09-.022.089.021ZM93.338 212.964l-.067-.042.045-.043.045.043-.023.042Zm17.039-2.68-.337-.17.202-.255.359.149-.224.276Zm17.351-3.422c0 .362-.404.596-.808.383a.39.39 0 0 1-.208-.128.348.348 0 0 1 0-.446.39.39 0 0 1 .208-.128.71.71 0 0 1 .406.065.654.654 0 0 1 .29.275l.112-.021Zm16.993-3.466c.202.51-.516.85-1.145.574-.628-.277-.606-.829 0-1.021a1.04 1.04 0 0 1 .621.064.964.964 0 0 1 .457.404l.067-.021Zm16.792-3.765c.336.616-.472 1.105-1.347.808-.876-.298-.988-1.021-.292-1.319h.179c.276-.069.569-.05.832.054.264.104.484.286.628.52v-.063Zm16.611-4.041c.427.702-.426 1.319-1.481 1.063-1.055-.255-1.459-1.169-.741-1.595.108-.051.221-.094.337-.127a1.84 1.84 0 0 1 1.052.048c.338.118.628.331.833.611Zm16.32-4.315c.539.744-.269 1.446-1.459 1.276-1.19-.17-2.043-1.318-1.167-1.829a1.11 1.11 0 0 1 .359-.17 2.36 2.36 0 0 1 1.231.058c.397.128.748.358 1.014.665h.022Zm16.05-4.659c.696.851-.135 1.659-1.549 1.468-1.414-.192-2.447-1.404-1.527-2.127.12-.076.248-.14.382-.191a2.95 2.95 0 0 1 1.452.03c.473.131.901.377 1.242.714v.106Zm15.735-4.782c.831.851.113 1.723-1.369 1.659-1.481-.064-3.03-1.382-2.245-2.127.153-.137.337-.239.539-.297a3.4 3.4 0 0 1 1.644-.001 3.285 3.285 0 0 1 1.431.766Zm15.4-5.125c.966.872.404 1.807-1.122 1.85-1.975 0-3.816-1.382-2.941-2.297.167-.125.357-.219.562-.276a4.01 4.01 0 0 1 1.852-.032c.61.133 1.177.407 1.649.797v-.042Zm14.996-5.38c1.122.914.606 1.914-1.033 1.999-2.245 0-4.243-1.361-3.39-2.361.157-.158.349-.281.561-.361a4.742 4.742 0 0 1 2.019-.061 4.608 4.608 0 0 1 1.843.784Zm14.568-5.593c1.19.85.876 1.871-.673 2.126-2.245.298-4.849-1.276-4.018-2.36.155-.165.347-.295.561-.383a5.084 5.084 0 0 1 2.147-.107 4.967 4.967 0 0 1 1.983.788v-.064Zm14.12-5.847c1.324.85 1.078 1.892-.494 2.126-2.245.34-5.23-1.212-4.489-2.36.141-.175.326-.314.538-.404a5.6 5.6 0 0 1 2.318-.168 5.506 5.506 0 0 1 2.172.784l-.045.022Zm13.76-6.103c1.369.808 1.347 1.829 0 2.126-2.245.574-5.836-1.02-5.118-2.275.135-.186.321-.333.539-.425a6.09 6.09 0 0 1 4.646.51l-.067.064Zm13.11-6.318c1.504.787 1.549 1.85.135 2.127-2.245.638-6.218-.915-5.567-2.127.112-.206.294-.37.516-.467a6.533 6.533 0 0 1 4.916.446v.021Zm12.571-6.526c1.616.765 1.773 1.807.359 2.126-2.402.723-6.734-.914-5.747-2.126.112-.136.249-.251.404-.34a6.86 6.86 0 0 1 4.984.34Zm12.099-6.762c1.684.723 1.953 1.786.561 2.254-2.379.766-6.869-.808-6.105-2.126a.939.939 0 0 1 .381-.341 7.074 7.074 0 0 1 5.163.213Zm11.314-6.869c1.773.68 2.244 1.722.83 2.126-2.245.808-6.959-.659-6.353-1.978.09-.144.212-.268.36-.361a7.318 7.318 0 0 1 5.163.149v.064Zm10.416-6.911c1.706.596 2.245 1.489 1.257 2.127-1.908.957-7.094-.383-6.6-1.723a.735.735 0 0 1 .292-.34 7.37 7.37 0 0 1 5.051 0v-.064Zm9.585-6.933c1.751.553 2.379 1.404 1.459 1.914-1.751.957-6.981-.255-6.734-1.531a.553.553 0 0 1 .247-.34 7.272 7.272 0 0 1 4.938 0l.09-.043Zm8.732-6.932c1.706.468 2.425 1.276 1.594 1.765-1.639.978-6.734 0-6.555-1.34a.507.507 0 0 1 .202-.319 7.081 7.081 0 0 1 4.759 0v-.106Zm7.902-6.952c1.706.425 2.491 1.169 1.728 1.637-1.459.957-6.734-.106-6.398-1.255a.446.446 0 0 1 .135-.212 6.779 6.779 0 0 1 4.49-.17h.045Zm7.049-6.933c1.728.382 2.514 1.105 1.639 1.552-1.504.786-6.196-.107-5.972-1.127a.559.559 0 0 1 0-.192 6.329 6.329 0 0 1 4.221-.234h.112Zm6.24-6.953c1.684.34 2.515 1 1.729 1.446-1.347.765-5.926 0-5.814-.978a.238.238 0 0 1 0-.17c.651-.617 2.739-.553 3.996-.298h.089Zm5.41-6.89c1.616.277 2.447.872 1.796 1.276-1.235.745-5.814 0-5.5-.893.561-.574 2.492-.531 3.682-.319l.022-.064Zm4.579-6.87c1.459.213 2.245.744 1.706 1.106-1.032.701-5.208.127-5.005-.68.426-.511 2.244-.511 3.277-.34l.022-.086Zm3.772-6.804c1.324.17 2.088.617 1.639.936-.853.616-4.49.19-4.49-.532.337-.447 1.863-.468 2.851-.34v-.064Zm2.963-6.763c1.189.128 1.908.49 1.549.787-.36.298-4.019.213-4.019-.382.225-.404 1.572-.426 2.447-.34l.023-.065Zm2.177-6.676c.943 0 1.571.383 1.302.617-.269.233-3.255.233-3.3-.256.157-.34 1.257-.382 1.998-.319v-.042Zm1.347-6.594c.763 0 1.28.277 1.1.447-.179.17-2.514.213-2.581-.149 0-.255.965-.297 1.481-.255v-.042Zm.584-6.504c.539 0 1.01.17.808.319-.202.149-1.818.191-1.863-.128-.045-.319.651-.212 1.055-.191Zm.336-6.273-.583.128-.606-.128.583-.149.606.149Zm-1.347-6.403-.179.064-.247-.064.224-.043.202.043ZM60.07 232.23l-.269-.17.225-.255.27.191-.225.234Zm18.857-2.658a.56.56 0 0 1-.126.277.608.608 0 0 1-.256.179.642.642 0 0 1-.606-.094.445.445 0 0 1-.092-.505.472.472 0 0 1 .181-.205.51.51 0 0 1 .27-.077.57.57 0 0 1 .41.087.515.515 0 0 1 .219.338Zm18.609-2.765c0 .68-.988 1.084-1.594.595-.606-.489-.359-1.106.517-1.276a.917.917 0 0 1 .697.115.845.845 0 0 1 .253.245.801.801 0 0 1 .127.321Zm18.498-3.104c.157.872-1.1 1.425-1.976.893a.954.954 0 0 1-.412-.438.89.89 0 0 1-.056-.584.928.928 0 0 1 .321-.5c.162-.131.362-.208.574-.222.324-.073.665-.025.953.133.288.159.501.415.596.718Zm18.339-3.423c.269 1.084-1.212 1.807-2.402 1.148a1.17 1.17 0 0 1-.539-.469 1.081 1.081 0 0 1 .152-1.311c.168-.176.389-.297.634-.347h.157a1.795 1.795 0 0 1 1.204.15c.368.189.651.498.794.871v-.042Zm18.206-3.722c.426 1.233-1.347 2.127-2.784 1.404a1.403 1.403 0 0 1-.723-.475 1.277 1.277 0 0 1-.278-.791c0-.285.098-.562.278-.79.181-.228.434-.395.723-.475h.157a2.352 2.352 0 0 1 1.473.168c.457.212.824.566 1.041 1.002l.113-.043Zm17.957-4.041c.584 1.318-1.189 2.382-2.895 1.744-1.706-.638-1.886-2.254-.472-2.871l.382-.128a2.768 2.768 0 0 1 1.724.135c.542.227.986.622 1.261 1.12Zm17.734-4.36c.786 1.51-1.1 2.722-3.098 2.127-1.997-.596-2.244-2.488-.785-3.211a2.56 2.56 0 0 1 .426-.149 3.33 3.33 0 0 1 1.96.135 3.124 3.124 0 0 1 1.497 1.205v-.107Zm17.487-4.527c.943 1.553-.808 2.914-3.03 2.361-2.222-.553-3.075-2.552-1.594-3.466.203-.126.422-.226.651-.298a3.944 3.944 0 0 1 2.216.118 3.73 3.73 0 0 1 1.757 1.285Zm17.24-5.041c1.1 1.574-.516 3.105-2.895 2.722-2.38-.383-4.086-2.722-2.402-3.87.222-.124.455-.231.696-.319a4.73 4.73 0 0 1 2.528.093 4.497 4.497 0 0 1 2.073 1.374Zm16.814-5.21c1.324 1.68-.247 3.296-2.896 2.934-2.649-.361-4.49-2.785-2.873-4.04a2.72 2.72 0 0 1 .718-.34 5.245 5.245 0 0 1 2.744.038 5.014 5.014 0 0 1 2.307 1.408Zm16.432-5.506c1.481 1.658.179 3.36-2.469 3.232-3.255-.17-5.612-2.849-3.772-4.253.218-.178.469-.315.741-.404a5.848 5.848 0 0 1 2.958-.009 5.616 5.616 0 0 1 2.542 1.434Zm16.072-5.763c1.706 1.701.449 3.53-2.379 3.444-3.457-.127-6.196-2.87-4.377-4.401.236-.169.492-.311.763-.426a6.646 6.646 0 0 1 3.187-.05 6.409 6.409 0 0 1 2.806 1.433Zm15.534-6.02c1.819 1.617.898 3.467-1.795 3.615-3.614.171-7.161-2.785-5.321-4.465.222-.2.481-.359.764-.468a7.09 7.09 0 0 1 3.355-.115 6.881 6.881 0 0 1 2.997 1.433Zm15.153-6.272c2.02 1.616 1.189 3.551-1.594 3.742-3.771.277-7.7-2.7-5.904-4.486.225-.202.482-.367.763-.49a7.69 7.69 0 0 1 3.53-.179c1.174.215 2.275.7 3.205 1.413Zm14.613-6.591c2.245 1.659 1.571 3.658-1.324 3.913-3.884.34-8.216-2.658-6.533-4.529.215-.209.465-.382.741-.511a8.307 8.307 0 0 1 3.702-.253 8.114 8.114 0 0 1 3.414 1.38Zm14.03-6.719c2.245 1.509 1.953 3.444-.628 3.912-3.839.702-8.979-2.36-7.408-4.38.206-.215.449-.394.718-.532a8.755 8.755 0 0 1 3.783-.314c1.27.173 2.48.623 3.535 1.314Zm13.447-7.019c2.402 1.468 2.244 3.403-.315 3.934-3.838.787-9.316-2.126-7.812-4.253.184-.225.413-.413.674-.553a8.975 8.975 0 0 1 3.828-.403 8.839 8.839 0 0 1 3.625 1.233v.042Zm12.884-7.25c2.537 1.425 2.537 3.403 0 3.977-3.816.893-9.607-1.978-8.261-4.083.168-.229.382-.424.629-.574a9.428 9.428 0 0 1 7.655.68h-.023Zm11.988-7.338c2.626 1.34 2.828 3.254.381 3.87-3.636.915-9.585-1.786-8.485-3.849.153-.219.352-.407.584-.552a9.422 9.422 0 0 1 7.52.531Zm11.111-7.399c2.537 1.191 3.098 2.956 1.145 3.679-3.322 1.254-10.057-1.361-9.136-3.53.122-.227.299-.424.516-.574a9.424 9.424 0 0 1 7.475.425Zm10.169-7.4c2.582 1.127 3.3 2.786 1.482 3.53-3.053 1.212-9.855-1.212-9.204-3.274a1.35 1.35 0 0 1 .427-.553c1.818-1.17 5.365-.511 7.295.297Zm9.249-7.42c2.604 1.02 3.434 2.615 1.773 3.338-2.918 1.276-10.079-1.212-8.979-3.168a.864.864 0 0 1 .292-.341c1.616-1.127 5.163-.574 7.026.171h-.112Zm8.395-7.422c2.582.936 3.547 2.424 2.02 3.147-2.693 1.276-9.787-.999-8.979-2.892.067-.122.15-.237.247-.34 1.459-1.106 4.849-.616 6.735 0l-.023.085Zm7.453-7.421c2.514.85 3.569 2.126 2.245 2.934-2.38 1.191-9.249-.808-8.777-2.572a1.59 1.59 0 0 1 .202-.32c1.257-1.063 4.489-.659 6.375 0l-.045-.042Zm6.6-7.401c2.447.744 3.569 2.126 2.245 2.721-2.245 1.191-8.822-.595-8.508-2.296a.714.714 0 0 1 .135-.298c.987-.914 3.883-.787 6.016-.127h.112Zm5.702-7.358c2.379.66 3.546 1.83 2.491 2.468-1.975 1.19-8.732-.575-8.148-2.127v-.127c.898-.957 3.794-.68 5.567-.192l.09-.021Zm4.826-7.314c2.245.616 3.502 1.743 2.245 2.296-1.953.936-7.812-.574-7.453-1.913v-.128c.719-.872 3.457-.66 5.073-.255h.135Zm3.973-7.252c2.245.51 3.322 1.489 2.245 2.02-1.684.872-7.071-.383-6.869-1.616.583-.808 2.985-.659 4.489-.298l.135-.106Zm3.053-7.231c2.065.447 3.188 1.319 2.245 1.808-1.302.744-6.734-.17-6.443-1.489.449-.723 2.672-.617 4.108-.319h.09Zm2.245-7.121c1.818.361 2.895 1.105 2.244 1.53-1.055.639-5.814 0-5.701-1.169.291-.66 2.244-.595 3.501-.361h-.044Zm1.481-7.039c1.639.277 2.649.915 2.088 1.297-.561.383-5.096 0-5.118-.957.202-.552 1.93-.531 3.03-.34Zm.584-6.953c1.212.191 2.245.701 1.841 1.063-.405.361-4.221 0-4.333-.744 0-.468 1.549-.468 2.492-.32Zm-.269-6.826c1.122.149 1.885.553 1.571.808-.314.255-3.367.149-3.547-.532 0-.361 1.168-.382 1.976-.276Zm-1.1-6.722c.898 0 1.504.426 1.212.617-.292.191-2.492 0-2.649-.383-.157-.383.831-.297 1.437-.234Zm-1.931-6.59c.629 0 1.055.276.875.425-.179.149-1.706 0-1.863-.255-.157-.255.584-.192.988-.17Zm-2.289-6.295-.382.106-.539-.149.404-.106.517.149Zm-3.997-6.422-.022.022-.09-.043h.068l.044.021ZM22.492 251.942l-.224-.17.224-.191.203.148-.203.213Zm20.002-2.064a.576.576 0 0 1-.13.312.627.627 0 0 1-.286.196.663.663 0 0 1-.354.019.638.638 0 0 1-.308-.166c-.247-.255 0-.744.494-.85a.521.521 0 0 1 .418.109.467.467 0 0 1 .166.38Zm19.776-2.233a.927.927 0 0 1-.206.491 1.002 1.002 0 0 1-.45.313c-.178.062-.37.076-.556.039a1.035 1.035 0 0 1-.494-.247.79.79 0 0 1-.12-.884.84.84 0 0 1 .323-.348.9.9 0 0 1 .47-.129c.764 0 1.056.425 1.033.765Zm19.732-2.593c-.03.232-.126.452-.278.637a1.37 1.37 0 0 1-.583.412c-.23.085-.48.109-.724.071a1.403 1.403 0 0 1-.66-.291 1.054 1.054 0 0 1-.19-1.161c.087-.191.229-.354.41-.473a1.21 1.21 0 0 1 .611-.194c.165-.034.335-.034.5-.001.165.033.32.099.456.194.136.094.249.215.332.354.083.139.133.293.149.452h-.023Zm19.799-2.955c.135 1.339-1.84 2.126-2.986 1.148-1.144-.978-.718-2.127.943-2.445a1.769 1.769 0 0 1 1.319.228c.191.122.354.279.479.463.124.184.208.39.245.606Zm19.552-3.296c.269 1.509-1.841 2.466-3.3 1.531a1.654 1.654 0 0 1-.696-.766 1.535 1.535 0 0 1-.08-1.008c.088-.336.287-.636.568-.856.281-.22.63-.35.994-.369a2.176 2.176 0 0 1 1.583.233c.234.137.437.316.597.528.16.212.273.452.334.707Zm19.53-3.636c.404 1.765-2.02 2.934-3.839 1.85a1.96 1.96 0 0 1-.949-.846 1.81 1.81 0 0 1-.197-1.22 1.87 1.87 0 0 1 .639-1.076c.334-.28.758-.447 1.203-.473a2.782 2.782 0 0 1 1.926.262 2.54 2.54 0 0 1 1.217 1.439v.064Zm19.283-3.893c.606 1.978-2.111 3.36-4.243 2.127a2.193 2.193 0 0 1-1.016-.906 2.026 2.026 0 0 1-.256-1.299c.062-.447.274-.865.603-1.191.33-.326.761-.545 1.23-.623a3.293 3.293 0 0 1 2.206.255 3.044 3.044 0 0 1 1.476 1.573v.064Zm19.103-4.401c.786 2.127-1.863 3.743-4.377 2.68-2.515-1.064-2.649-3.786-.247-4.572h.291a3.962 3.962 0 0 1 2.543.249c.79.361 1.424.972 1.79 1.728v-.085Zm18.788-4.614c1.033 2.297-1.773 4.147-4.624 3.041-2.851-1.106-3.21-4.104-.606-5.018h.314a4.548 4.548 0 0 1 2.851.248 4.228 4.228 0 0 1 2.065 1.878v-.149Zm18.61-4.956c1.257 2.382-1.369 4.423-4.49 3.53-3.12-.893-4.287-4.253-1.706-5.422l.651-.255a5.246 5.246 0 0 1 3.147.187 4.924 4.924 0 0 1 2.398 1.939v.021Zm18.25-5.167c1.527 2.552-1.167 4.806-4.647 3.892-3.479-.915-4.916-4.402-2.244-5.805.223-.111.456-.203.696-.277a5.981 5.981 0 0 1 3.469.153 5.641 5.641 0 0 1 2.726 2.037Zm17.891-5.634c1.819 2.7-.92 5.167-4.759 4.253-3.838-.915-5.612-4.615-2.851-6.167.237-.128.485-.234.741-.319a6.59 6.59 0 0 1 3.716.072 6.272 6.272 0 0 1 3.019 2.054l.134.107Zm17.442-5.849c1.975 2.616-.382 5.231-4.22 4.678-4.22-.617-6.735-4.423-4.243-6.379a4 4 0 0 1 1.078-.553 7.409 7.409 0 0 1 4.028.016 7.065 7.065 0 0 1 3.357 2.11v.128Zm17.038-6.144c2.245 2.701 0 5.508-4.152 4.998-4.49-.553-7.453-4.487-4.917-6.571a4.377 4.377 0 0 1 1.078-.617 8.17 8.17 0 0 1 4.322-.037 7.813 7.813 0 0 1 3.669 2.164v.063Zm16.544-6.4c2.447 2.636.629 5.465-3.434 5.294-4.916-.191-8.755-4.423-6.129-6.74a3.812 3.812 0 0 1 1.1-.66 8.736 8.736 0 0 1 4.553-.082 8.387 8.387 0 0 1 3.91 2.209v-.021Zm16.028-6.7c2.739 2.68 1.055 5.635-3.187 5.55-5.119 0-9.406-4.401-6.869-6.868a4.337 4.337 0 0 1 1.1-.702 9.459 9.459 0 0 1 4.801-.117 9.115 9.115 0 0 1 4.178 2.244l-.023-.107Zm15.489-6.974c2.941 2.658 1.392 5.805-2.896 5.784-5.23 0-9.944-4.253-7.52-6.89a3.297 3.297 0 0 1 1.078-.744 9.995 9.995 0 0 1 4.944-.273 9.69 9.69 0 0 1 4.417 2.123h-.023Zm14.838-7.189c3.031 2.488 2.043 5.508-1.93 5.869-5.298.489-11.09-4.04-8.71-6.804.28-.317.623-.577 1.01-.766a10.41 10.41 0 0 1 5.054-.36 10.12 10.12 0 0 1 4.576 2.061Zm14.255-7.463c3.255 2.467 2.469 5.55-1.527 5.997-5.342.595-11.538-3.871-9.338-6.741.272-.327.607-.601.988-.808a10.796 10.796 0 0 1 5.152-.443c1.729.272 3.356.959 4.725 1.995Zm13.603-7.697c3.434 2.424 2.873 5.528-1.1 6.06-5.298.68-11.83-3.658-9.855-6.571.249-.323.561-.598.921-.808 3.277-1.658 7.834-.234 10.034 1.319Zm12.638-7.784c3.57 2.318 3.278 5.359-.538 5.933-5.343.787-12.347-3.828-9.99-6.592.194-.187.405-.357.629-.511 3.03-1.637 7.61-.318 9.899 1.17Zm11.651-7.825c3.434 2.127 3.704 4.87.538 5.678-4.714 1.212-12.413-2.913-10.977-5.891.179-.313.423-.588.719-.808 2.806-1.637 7.385-.382 9.72 1.021Zm10.708-7.824c3.479 1.914 3.973 4.636 1.01 5.465-4.692 1.319-12.773-2.977-10.955-5.805.134-.195.301-.367.494-.51 2.559-1.638 7.071-.489 9.451.85Zm9.742-7.953c3.479 1.808 4.198 4.402 1.459 5.231-4.333 1.319-12.459-2.7-11-5.422.118-.181.261-.346.427-.489 2.043-1.446 6.33-.766 9.114.68Zm8.732-7.784c3.457 1.68 4.489 4.146 1.863 4.976-4.041 1.339-12.1-2.382-10.932-5.019.093-.179.214-.344.359-.489 2.043-1.552 6.308-.617 8.71.532Zm7.879-7.847c3.412 1.553 4.49 3.871 2.245 4.7-3.771 1.34-12.122-2.488-10.64-4.87l.179-.212c1.594-1.34 5.523-.851 8.261.382h-.045Zm6.892-7.761c3.3 1.404 4.49 3.552 2.469 4.253-3.367 1.297-11.448-2.126-10.281-4.38.037-.076.082-.147.135-.213 1.504-1.425 5.387-.702 7.677.255v.085Zm5.971-7.824c3.142 1.255 4.489 3.232 2.671 3.998-3.008 1.254-10.775-1.829-9.9-3.955v-.192c1.123-1.19 4.49-.85 7.116.149h.113Zm5.028-7.721c2.986 1.106 4.49 2.892 2.806 3.615-2.581 1.19-9.922-1.552-9.361-3.487a1.207 1.207 0 0 1 0-.17c.898-1.106 4.063-.851 6.465 0l.09.042Zm4.153-7.675c2.783.957 4.198 2.573 2.873 3.232-2.245 1.148-9.114-1.254-8.777-3.04a.806.806 0 0 1 0-.17c.696-1.022 3.592-.809 5.836 0l.068-.022Zm3.255-7.633c2.671.85 4.086 2.275 2.941 2.934-1.729.957-8.687-.936-8.261-2.85.539-.935 3.188-.765 5.32 0v-.085Zm2.334-7.423c2.537.765 3.906 2.126 2.672 2.637-1.729.723-7.498-.936-7.296-2.488.382-.83 2.694-.723 4.624-.149Zm1.459-7.548c2.245.638 3.637 1.83 2.604 2.297-1.436.66-6.734-.744-6.734-2.127.247-.744 2.245-.659 4.063-.17h.067Zm.562-7.337c1.998.532 3.255 1.531 2.447 1.936-1.168.574-5.725-.553-5.859-1.744.134-.702 2.087-.532 3.412-.192Zm-.315-7.251c1.751.447 2.919 1.276 2.245 1.637-.673.362-4.894-.383-5.14-1.403 0-.638 1.706-.51 2.873-.234h.022Zm-1.301-7.102c1.481.34 2.492 1 1.998 1.319-.494.319-3.974-.277-4.288-1.106-.314-.83 1.325-.425 2.245-.213h.045Zm-1.976-6.91c1.167.255 2.02.744 1.684 1a4.382 4.382 0 0 1-1.816-.05 4.238 4.238 0 0 1-1.619-.78c0-.34.853-.34 1.751-.17Zm-2.94-6.87c.92.191 1.571.574 1.257.744-.436.067-.882.05-1.311-.053a3.315 3.315 0 0 1-1.181-.543c0-.276.651-.255 1.235-.148ZM458.7 9.356c.539 0 1.055.34.853.468a2.343 2.343 0 0 1-1.616-.362c0-.149.337-.17.763 0v-.106Zm-4.197-6.316-.337.063-.539-.191.337-.064.539.192ZM1.684 270.74l-.202-.17.224-.191.225.17-.247.191Zm21.056-1.765a.66.66 0 0 1-.159.348.716.716 0 0 1-.33.214.755.755 0 0 1-.4.013.728.728 0 0 1-.346-.192.616.616 0 0 1 .232-.864.712.712 0 0 1 .33-.093.617.617 0 0 1 .48.135.528.528 0 0 1 .192.439Zm20.809-1.978c-.025.203-.11.396-.245.556a1.153 1.153 0 0 1-.52.346 1.21 1.21 0 0 1-.634.031 1.164 1.164 0 0 1-.554-.295c-.426-.468-.202-1.382.853-1.552a.956.956 0 0 1 .789.199c.106.088.19.199.244.323a.831.831 0 0 1 .067.392Zm20.809-2.36c-.027.277-.136.54-.314.76-.179.22-.42.388-.694.484a1.63 1.63 0 0 1-.86.057 1.576 1.576 0 0 1-.759-.386 1.26 1.26 0 0 1-.166-1.361c.107-.219.275-.407.487-.542.211-.135.457-.212.712-.224a1.38 1.38 0 0 1 .583 0c.191.042.37.124.524.241.153.116.277.264.361.433.085.168.127.352.126.538Zm20.877-2.744c-.02.363-.151.713-.376 1.008a1.99 1.99 0 0 1-.892.654 2.109 2.109 0 0 1-1.124.092 2.033 2.033 0 0 1-.998-.5 1.626 1.626 0 0 1-.457-.838 1.579 1.579 0 0 1 .1-.939c.128-.297.344-.552.623-.735.279-.183.607-.285.946-.295.258-.063.527-.071.788-.024.261.047.508.148.723.297.215.148.392.34.519.562.127.221.2.466.215.718h-.067Zm20.787-3.105c.047.439-.052.881-.281 1.264-.23.384-.58.69-1.001.877a2.358 2.358 0 0 1-1.353.166 2.282 2.282 0 0 1-1.204-.606 1.968 1.968 0 0 1-.735-.952 1.858 1.858 0 0 1-.024-1.179 1.96 1.96 0 0 1 .696-.977 2.133 2.133 0 0 1 1.163-.422 2.336 2.336 0 0 1 1.802.333c.258.173.476.396.637.653.161.258.264.545.3.843Zm20.607-3.487a2.494 2.494 0 0 1-.369 1.441 2.684 2.684 0 0 1-1.142 1.014 2.87 2.87 0 0 1-1.541.257 2.827 2.827 0 0 1-1.438-.585 2.267 2.267 0 0 1-.917-1.055 2.12 2.12 0 0 1-.097-1.363c.119-.453.385-.859.76-1.162a2.424 2.424 0 0 1 1.332-.524c.369-.078.75-.083 1.122-.018.371.066.725.203 1.039.401.315.199.584.456.791.755.207.3.348.636.415.988l.045-.149Zm20.517-3.848c.494 2.36-2.672 3.913-4.961 2.467a2.597 2.597 0 0 1-1.122-1.143 2.412 2.412 0 0 1-.2-1.549 2.499 2.499 0 0 1 .796-1.365 2.737 2.737 0 0 1 1.491-.664 3.501 3.501 0 0 1 2.479.362 3.194 3.194 0 0 1 1.517 1.892Zm20.383-4.188c.696 2.658-2.806 4.508-5.545 2.892a2.956 2.956 0 0 1-1.312-1.245 2.726 2.726 0 0 1-.3-1.735 2.81 2.81 0 0 1 .825-1.576 3.08 3.08 0 0 1 1.64-.824 4.148 4.148 0 0 1 2.862.371 3.797 3.797 0 0 1 1.83 2.117Zm20.113-4.551c.921 2.785-2.514 4.89-5.634 3.487-3.12-1.403-3.188-5.018-.135-6.039l.359-.106a4.712 4.712 0 0 1 3.254.326 4.331 4.331 0 0 1 2.156 2.332Zm19.844-4.869c1.167 3.041-2.447 5.422-5.971 3.912-3.524-1.509-3.771-5.422-.516-6.57l.426-.128a5.473 5.473 0 0 1 3.57.34 5.063 5.063 0 0 1 2.491 2.446Zm19.575-5.233c1.459 3.275-2.245 5.933-6.286 4.38-4.04-1.552-4.489-5.784-.943-7.123l.427-.149a6.25 6.25 0 0 1 3.899.334 5.821 5.821 0 0 1 2.835 2.558h.068Zm19.215-5.593c1.706 3.339-1.774 6.252-6.039 5.019-4.265-1.234-5.791-5.784-2.379-7.592.289-.135.59-.249.898-.34a7.086 7.086 0 0 1 4.276.261 6.647 6.647 0 0 1 3.244 2.652Zm18.856-5.825c2.065 3.551-1.527 6.741-6.173 5.486-4.647-1.255-6.577-6.039-3.008-8.166a5.9 5.9 0 0 1 .92-.404 7.77 7.77 0 0 1 4.666.217 7.306 7.306 0 0 1 3.595 2.824v.043Zm18.408-6.168c2.379 3.7-1.213 7.124-6.218 5.912-5.006-1.213-7.318-6.38-3.682-8.506.306-.179.629-.328.965-.447a8.433 8.433 0 0 1 5.019.118 7.966 7.966 0 0 1 3.961 2.923h-.045Zm17.98-6.506c2.582 3.636-.538 7.294-5.567 6.528-5.836-.872-8.979-6.571-5.095-9.08.309-.196.64-.36.987-.489a9.267 9.267 0 0 1 5.35.058 8.791 8.791 0 0 1 4.325 2.983Zm17.464-6.784c2.941 3.764 0 7.677-5.454 6.954-6.174-.808-9.855-6.72-5.882-9.314.322-.203.659-.38 1.01-.532a9.98 9.98 0 0 1 5.659-.031 9.504 9.504 0 0 1 4.667 3.029v-.106Zm16.904-7.08c3.277 3.849.337 7.974-5.23 7.336-6.465-.744-10.663-6.805-6.735-9.697a9.394 9.394 0 0 1 1.01-.553 10.717 10.717 0 0 1 5.936-.123 10.247 10.247 0 0 1 4.997 3.037h.022Zm16.319-7.357c3.659 3.955.898 8.272-4.938 7.719-6.735-.638-11.449-6.847-7.565-9.909.323-.226.66-.431 1.01-.617a11.425 11.425 0 0 1 6.188-.219 10.969 10.969 0 0 1 5.305 3.026Zm15.691-7.635c3.704 3.7 1.639 8.08-3.816 8.059-7.004 0-13.02-6.698-9.091-10.037.307-.248.637-.469.987-.659a11.815 11.815 0 0 1 6.373-.357 11.392 11.392 0 0 1 5.547 2.994Zm14.996-7.931c3.996 3.721 2.245 8.208-3.345 8.293-7.071 0-13.626-6.57-9.877-10.058.291-.263.615-.492.965-.68 4.49-2.127 9.832.212 12.257 2.445Zm14.187-8.06c4.22 3.636 2.693 8.144-2.784 8.336-6.981.234-13.895-6.273-10.416-9.824a6.73 6.73 0 0 1 .898-.702c4.265-2.127 9.765 0 12.302 2.126v.064Zm13.267-8.209c4.489 3.53 3.277 7.996-2.066 8.272-6.734.34-14.074-6.018-10.954-9.59.255-.249.533-.477.83-.681 3.974-2.126 9.518-.127 12.19 1.999Zm12.189-8.207c4.287 3.19 3.951 7.294-.629 7.975-6.42.935-14.815-5.423-11.965-9.102.219-.253.468-.481.741-.68 3.637-2.126 9.137-.234 11.853 1.807Zm11.089-8.208c4.288 2.999 4.288 6.911 0 7.613-5.971 1-14.411-4.997-12.054-8.506.193-.239.411-.46.651-.659 3.277-2.126 8.642-.34 11.381 1.595l.022-.043Zm10.124-8.253c4.288 2.829 4.624 6.571.651 7.294-5.881 1.063-14.613-5.103-11.807-8.357.086-.121.192-.229.314-.319 2.918-2.126 8.104-.425 10.842 1.382Zm9.114-8.228c4.243 2.616 4.871 6.167 1.212 6.89-5.387 1.084-14.052-4.678-11.718-7.783a1.77 1.77 0 0 1 .27-.298c2.559-1.956 7.52-.489 10.236 1.191Zm8.149-8.251c4.108 2.403 4.983 5.72 1.683 6.379-4.893 1.064-13.468-4.252-11.493-7.166l.224-.276c2.245-1.871 6.937-.553 9.586.999v.064Zm7.16-8.164c3.929 2.126 5.006 5.295 2.088 5.996-4.49 1.063-12.638-3.764-11.224-6.549.055-.088.115-.174.179-.255 1.684-1.595 5.927-.83 8.98.808h-.023Zm6.196-8.123c3.794 1.957 5.028 4.785 2.402 5.487-3.614.957-12.167-3.339-10.528-6.167 1.504-1.637 5.746-.574 8.126.68Zm5.275-8.146c3.614 1.787 4.983 4.402 2.671 5.082-3.21.936-11.381-2.955-10.146-5.613 1.122-1.382 4.759-.808 7.475.531Zm4.31-8.059c3.39 1.594 4.849 3.955 2.829 4.593-2.784.893-10.438-2.552-9.585-4.997.875-1.276 4.197-.787 6.734.404h.022Zm3.345-7.91c3.143 1.404 4.669 3.509 2.941 4.104-2.38.85-9.496-2.126-8.979-4.401.651-1.191 3.636-.766 6.016.297h.022Zm2.402-7.952c2.873 1.212 4.49 3.062 2.963 3.615-1.998.765-8.463-1.85-8.193-3.828.516-1.17 3.367-.574 5.23.213Zm1.504-7.826c2.604 1.042 4.086 2.68 2.918 3.19-1.661.701-7.52-1.553-7.497-3.318.336-1.041 2.873-.553 4.489.128h.09Zm.584-7.739c2.357.893 3.816 2.339 2.85 2.828-1.346.659-6.734-1.297-6.869-2.892.158-.85 2.245-.617 4.019 0v.064Zm-.382-7.571c2.043.744 3.412 1.956 2.671 2.36-.74.404-5.679-1.041-5.971-2.381 0-.787 1.953-.468 3.3 0v.021Zm-1.28-7.465c1.886.638 3.143 1.723 2.245 2.127a6.894 6.894 0 0 1-2.797-.528 6.58 6.58 0 0 1-2.299-1.599c0-.68 1.572-.404 2.739 0h.112Zm-2.2-7.313c1.549.51 2.627 1.34 2.066 1.595a5.823 5.823 0 0 1-2.288-.36 5.584 5.584 0 0 1-1.933-1.214c0-.49 1.033-.383 2.245 0l-.09-.021Zm-3.12-7.169c1.235.384 2.245 1.043 1.751 1.234a4.938 4.938 0 0 1-3.412-1.19c-.157-.447.875-.298 1.639 0l.022-.043Zm-3.906-7.016c.921.277 1.662.766 1.392.915a3.782 3.782 0 0 1-2.581-.872c-.157-.319.606-.213 1.189 0v-.043Zm-5.028-6.782c.583.17 1.077.447.942.553a2.723 2.723 0 0 1-1.661-.532c0-.191.315-.127.539 0h.18v-.021ZM470.508.658l-.269.022-.539-.234.292-.022.516.234ZM.786 289.473l-.404-.319.426-.404.404.34-.426.383Zm22.178-1.998a.897.897 0 0 1-.224.448.965.965 0 0 1-.437.271 1.02 1.02 0 0 1-.523.016.983.983 0 0 1-.454-.246.815.815 0 0 1-.032-.842.874.874 0 0 1 .311-.322.936.936 0 0 1 .439-.133.852.852 0 0 1 .355.027.81.81 0 0 1 .308.17.76.76 0 0 1 .202.278.73.73 0 0 1 .055.333Zm21.752-2.083a1.24 1.24 0 0 1-.288.629 1.348 1.348 0 0 1-.59.397c-.231.079-.48.096-.721.05a1.37 1.37 0 0 1-.645-.311 1.157 1.157 0 0 1-.107-1.235 1.24 1.24 0 0 1 .448-.482 1.33 1.33 0 0 1 .646-.196 1.25 1.25 0 0 1 .51.04c.164.048.316.13.444.239a1.088 1.088 0 0 1 .393.869h-.09Zm21.842-2.467c-.02.339-.145.664-.359.936a1.83 1.83 0 0 1-.841.598 1.943 1.943 0 0 1-1.05.063 1.872 1.872 0 0 1-.915-.491 1.577 1.577 0 0 1-.37-.802c-.043-.295 0-.595.126-.867a1.63 1.63 0 0 1 .584-.678c.258-.171.56-.271.872-.29a1.758 1.758 0 0 1 1.344.345c.185.145.335.326.44.531.105.204.163.428.17.655Zm21.797-2.872c.012.421-.109.836-.346 1.192a2.215 2.215 0 0 1-.988.808 2.35 2.35 0 0 1-2.46-.405 2.086 2.086 0 0 1-.515-.984 2.022 2.022 0 0 1 .072-1.097 2.12 2.12 0 0 1 .64-.915 2.285 2.285 0 0 1 1.038-.491 2.35 2.35 0 0 1 1.706.427c.24.177.439.398.585.65.147.252.238.529.268.815Zm21.685-3.275c.02.501-.115.996-.39 1.424a2.645 2.645 0 0 1-1.156.984 2.828 2.828 0 0 1-1.537.215 2.76 2.76 0 0 1-1.407-.624 2.354 2.354 0 0 1-.912-1.139 2.214 2.214 0 0 1-.043-1.429c.143-.469.438-.884.843-1.186a2.55 2.55 0 0 1 1.414-.499 2.797 2.797 0 0 1 1.075.008c.353.072.688.212.982.411.295.199.543.454.73.747.187.294.308.621.356.96l.045.128Zm21.64-3.635a2.863 2.863 0 0 1-.433 1.641 3.088 3.088 0 0 1-1.307 1.153 3.294 3.294 0 0 1-3.401-.369 2.705 2.705 0 0 1-1.021-1.262 2.548 2.548 0 0 1-.087-1.586 2.66 2.66 0 0 1 .877-1.355c.43-.357.965-.582 1.533-.646a3.382 3.382 0 0 1 1.28-.023c.425.075.828.23 1.187.457.359.227.666.52.901.862.236.342.396.726.471 1.128Zm21.482-4.018a3.227 3.227 0 0 1-.446 1.882 3.491 3.491 0 0 1-1.46 1.345 3.747 3.747 0 0 1-1.999.37 3.687 3.687 0 0 1-1.886-.726 3.117 3.117 0 0 1-1.229-1.388 2.916 2.916 0 0 1-.186-1.802 3.017 3.017 0 0 1 .921-1.586 3.3 3.3 0 0 1 1.706-.817 4.023 4.023 0 0 1 2.825.502 3.65 3.65 0 0 1 1.664 2.22h.09Zm21.236-4.381c.741 3.083-3.255 5.188-6.286 3.296a3.45 3.45 0 0 1-1.459-1.473 3.212 3.212 0 0 1-.304-2c.118-.68.454-1.31.962-1.803a3.611 3.611 0 0 1 1.879-.955 4.705 4.705 0 0 1 3.205.509 4.304 4.304 0 0 1 2.003 2.426Zm21.101-4.763c.988 3.445-3.367 5.869-6.847 3.806a3.834 3.834 0 0 1-1.737-1.544 3.54 3.54 0 0 1-.467-2.213 3.615 3.615 0 0 1 .977-2.058 3.96 3.96 0 0 1 2.058-1.138 5.322 5.322 0 0 1 3.656.461c1.115.583 1.957 1.542 2.36 2.686Zm20.719-5.104c1.19 3.53-2.941 6.252-6.734 4.508-3.794-1.743-4.041-6.379-.315-7.676l.472-.149a5.961 5.961 0 0 1 4.038.436c1.243.613 2.203 1.639 2.696 2.881h-.157Zm20.45-5.466c1.481 3.785-2.873 6.826-7.161 4.998-4.288-1.829-4.692-6.763-.741-8.272l.494-.17a6.627 6.627 0 0 1 4.381.415c1.36.633 2.435 1.708 3.027 3.029Zm20.136-5.804c1.818 4.104-2.716 7.485-7.498 5.55-4.781-1.935-5.432-7.251-1.257-8.952l.539-.191a7.407 7.407 0 0 1 4.797.383c1.502.657 2.713 1.793 3.419 3.21Zm19.821-6.146c2.245 4.253-2.514 8.06-7.7 6.082-5.185-1.978-6.173-7.634-1.795-9.548l.538-.191a8.122 8.122 0 0 1 5.179.312c1.636.666 2.979 1.848 3.801 3.345h-.023Zm19.194-6.486c2.424 4.38-1.774 8.357-7.251 6.868-5.994-1.658-7.924-8.123-3.075-10.355l.583-.234a8.91 8.91 0 0 1 5.555.255c1.768.676 3.244 1.897 4.188 3.466Zm18.968-6.827c2.806 4.657-1.459 8.995-7.386 7.485-6.442-1.637-8.844-8.505-3.816-10.993l.584-.256a9.782 9.782 0 0 1 5.985.171c1.92.681 3.549 1.944 4.633 3.593Zm18.161-7.102c3.165 4.742-1.145 9.463-7.318 8.017-6.735-1.616-9.72-8.825-4.49-11.504a5.49 5.49 0 0 1 .628-.277 10.449 10.449 0 0 1 6.275.11c2.023.679 3.76 1.961 4.949 3.654h-.044Zm17.755-7.462c3.435 4.742-.202 9.675-6.465 8.782-7.25-1.02-11.538-8.506-6.734-11.865a8.845 8.845 0 0 1 1.19-.681 11.299 11.299 0 0 1 6.652.027c2.159.677 4.035 1.985 5.357 3.737Zm17.196-7.742c3.838 4.933.314 10.165-6.263 9.335-7.588-.935-12.459-8.633-7.79-12.291a7.331 7.331 0 0 1 1.19-.723 11.98 11.98 0 0 1 7.066-.15c2.312.661 4.342 2.002 5.797 3.829Zm16.476-8.038c4.265 5.082.921 10.632-5.948 9.888-7.902-.829-13.469-8.782-8.8-12.759a11.4 11.4 0 0 1 1.212-.765c5.32-2.275 11.224.744 13.469 3.594l.067.042Zm15.849-8.335c4.714 5.21 1.571 11.079-5.59 10.462-8.553-.808-14.748-9.739-9.248-13.566a6.31 6.31 0 0 1 .651-.383c5.365-2.488 11.538.531 14.187 3.466v.021Zm14.95-8.548c4.983 5.125 2.11 11.292-5.029 10.781-8.642-.595-15.354-9.59-10.056-13.63.2-.147.41-.282.628-.404 5.275-2.658 11.673.319 14.524 3.253h-.067Zm13.693-8.55c4.871 4.7 3.12 10.441-3.188 10.633-8.081.212-16.05-8.251-12.032-12.759.326-.318.679-.61 1.055-.872 4.894-2.637 11.224.191 14.165 3.02v-.022Zm12.504-8.503c4.848 4.401 3.636 9.888-2.245 10.121-7.879.298-16.073-8.505-11.696-12.461l.494-.382c4.355-2.573 10.483 0 13.469 2.722h-.022Zm11.448-8.529c4.782 4.104 4.041 9.272-1.369 9.569-7.251.362-15.467-7.761-11.718-11.61l.449-.383c3.861-2.488 9.72 0 12.638 2.424Zm10.393-8.527c4.692 3.785 4.49 8.633-.539 8.931-6.599.404-14.703-7.124-11.583-10.739l.359-.361c3.39-2.361 8.98-.149 11.763 2.126v.043Zm9.451-8.57c4.49 3.488 4.647 8.038.157 8.378-6.038.468-14.052-6.506-11.426-9.951l.314-.341c2.604-2.02 7.722-.574 10.955 1.914Zm8.44-8.569c4.49 3.232 4.849 7.463.786 7.846-5.298.468-13.805-5.954-10.954-9.505 2.491-2.126 7.452-.319 10.168 1.659Zm7.408-8.527c4.22 2.935 4.916 6.847 1.302 7.23-4.736.51-12.908-5.337-10.573-8.676 1.863-1.786 6.263-.638 9.271 1.446Zm6.465-8.506c4.018 2.658 4.961 6.379 1.728 6.677-4.22.532-12.077-4.806-10.236-7.932 1.729-1.892 6.016-.404 8.508 1.255Zm5.455-8.462c3.771 2.381 4.894 5.698 2.065 6.103-3.726.531-11.224-4.253-9.742-7.167 1.369-1.743 5.32-.425 7.677 1.064Zm4.467-8.421c3.569 2.126 4.849 5.167 2.379 5.57-3.187.511-10.258-3.89-9.315-6.378.987-1.425 4.354-.638 6.936.914v-.106Zm3.48-8.336c3.322 1.935 4.714 4.636 2.581 5.019-2.828.468-9.361-3.381-8.755-5.784.741-1.319 3.772-.617 6.174.765Zm2.514-8.229c3.03 1.68 4.489 4.083 2.671 4.444-2.379.447-8.373-2.934-8.059-5.082.539-1.297 3.547-.383 5.388.638Zm1.549-8.186c2.784 1.488 4.265 3.636 2.739 3.976-1.953.425-7.52-2.615-7.476-4.508.337-1.063 2.717-.553 4.737.532Zm.583-7.976c2.514 1.297 3.928 3.125 2.694 3.444-1.616.404-6.6-2.126-6.735-3.87.202-1.02 2.515-.361 4.041.425Zm-.381-8.016c2.245 1.105 3.614 2.7 2.604 2.998-1.01.297-5.747-1.893-6.039-3.339 0-.893 2.065-.319 3.435.34Zm-1.369-7.782c1.908.914 3.21 2.126 2.424 2.488a7.5 7.5 0 0 1-2.917-.838 7.09 7.09 0 0 1-2.291-1.905c0-.702 1.392-.404 2.784.255Zm-2.313-7.594c1.639.745 2.829 1.85 2.245 2.127-1.753-.173-3.365-.99-4.489-2.275-.135-.617 1.257-.234 2.244.212v-.064Zm-3.255-7.548c1.347.596 2.245 1.468 1.953 1.638A5.86 5.86 0 0 1 504 27.942c-.179-.49.898-.213 1.706.149Zm-4.197-7.336c1.032.447 1.885 1.106 1.616 1.233a5.163 5.163 0 0 1-2.918-1.233c-.18-.34.561-.127.718 0l.584.213v-.213Zm-5.163-7.102c.763.319 1.392.786 1.145.85a4.18 4.18 0 0 1-1.976-.935s-.134-.17.202 0c.217.04.428.105.629.191v-.106Zm-6.107-6.934c.405.17.876.468.741.49a2.49 2.49 0 0 1-1.212-.532c.146.03.289.072.427.127l.044-.085Zm-6.846-6.59h-.067L483.079 0l.112.021.202.107ZM.427 309.251 0 308.889l.427-.446.448.383-.448.425Zm23.009-2.107a.825.825 0 0 1-.19.456.901.901 0 0 1-.425.282.95.95 0 0 1-.518.012.911.911 0 0 1-.439-.261.79.79 0 0 1-.064-.835.845.845 0 0 1 .303-.326.91.91 0 0 1 .435-.136.87.87 0 0 1 .64.213.755.755 0 0 1 .258.595Zm22.582-2.168a1.233 1.233 0 0 1-.24.673 1.332 1.332 0 0 1-.584.446 1.413 1.413 0 0 1-1.42-.226 1.219 1.219 0 0 1-.374-.625 1.172 1.172 0 0 1 .058-.716 1.25 1.25 0 0 1 .47-.565 1.35 1.35 0 0 1 .72-.22 1.25 1.25 0 0 1 .51.04c.164.048.316.13.444.239a1.088 1.088 0 0 1 .394.869l.022.085Zm22.718-2.574a1.702 1.702 0 0 1-.324.916 1.838 1.838 0 0 1-.786.617 1.96 1.96 0 0 1-1.01.134 1.92 1.92 0 0 1-.933-.392 1.613 1.613 0 0 1-.48-.803 1.553 1.553 0 0 1 .055-.921 1.64 1.64 0 0 1 .572-.747c.262-.192.578-.309.908-.336.24-.039.486-.03.721.028.236.058.456.163.645.308.19.145.343.327.452.533.11.206.17.432.18.663Zm22.582-2.977a2.04 2.04 0 0 1-.337 1.18 2.207 2.207 0 0 1-.967.81 2.35 2.35 0 0 1-2.445-.353 2.086 2.086 0 0 1-.53-.984 2.017 2.017 0 0 1 .062-1.103c.123-.356.343-.675.638-.925s.655-.421 1.042-.497c.297-.038.6-.02.888.053.29.074.56.202.797.376.237.175.434.392.58.64.146.248.239.521.272.803Zm22.538-3.381a2.419 2.419 0 0 1-.306 1.493 2.608 2.608 0 0 1-1.154 1.058 2.805 2.805 0 0 1-1.586.24 2.73 2.73 0 0 1-1.444-.665 2.365 2.365 0 0 1-.88-1.142 2.243 2.243 0 0 1-.033-1.414c.142-.463.43-.874.826-1.177a2.573 2.573 0 0 1 1.389-.52 2.78 2.78 0 0 1 1.064.016c.35.074.68.214.97.414.29.199.534.452.717.744.183.292.301.616.347.953h.09Zm22.47-3.784c.047.58-.088 1.16-.388 1.668-.3.508-.752.92-1.299 1.186a3.268 3.268 0 0 1-1.774.308 3.219 3.219 0 0 1-1.657-.674 2.804 2.804 0 0 1-1.021-1.301 2.65 2.65 0 0 1-.084-1.618 2.764 2.764 0 0 1 .881-1.389c.433-.37.972-.61 1.548-.689a3.407 3.407 0 0 1 1.281.013c.422.086.821.25 1.174.484.354.234.654.532.884.878.23.345.385.731.455 1.134Zm22.358-4.19a3.222 3.222 0 0 1-.399 1.928 3.477 3.477 0 0 1-1.464 1.392 3.733 3.733 0 0 1-3.951-.364 3.215 3.215 0 0 1-1.246-1.439 3.013 3.013 0 0 1-.178-1.854 3.13 3.13 0 0 1 .951-1.629 3.419 3.419 0 0 1 1.753-.841 3.987 3.987 0 0 1 2.855.527 3.608 3.608 0 0 1 1.634 2.28h.045Zm22.089-4.551a3.567 3.567 0 0 1-.379 2.16 3.83 3.83 0 0 1-1.589 1.59 4.133 4.133 0 0 1-4.407-.326 3.586 3.586 0 0 1-1.37-1.551 3.357 3.357 0 0 1-.246-2.009 3.458 3.458 0 0 1 .958-1.807 3.777 3.777 0 0 1 1.847-1.013 4.567 4.567 0 0 1 3.249.517c.969.569 1.665 1.475 1.937 2.524v-.085Zm21.774-4.91a3.846 3.846 0 0 1-.352 2.319 4.118 4.118 0 0 1-1.652 1.744 4.444 4.444 0 0 1-2.396.582 4.416 4.416 0 0 1-2.334-.775 3.959 3.959 0 0 1-1.699-1.64 3.668 3.668 0 0 1-.41-2.264 3.761 3.761 0 0 1 1.024-2.083 4.122 4.122 0 0 1 2.095-1.158 5.167 5.167 0 0 1 3.536.58c1.061.607 1.842 1.568 2.188 2.695Zm21.685-5.339a4.164 4.164 0 0 1-.117 2.596 4.414 4.414 0 0 1-1.649 2.077 4.795 4.795 0 0 1-2.6.826 4.82 4.82 0 0 1-2.638-.714 4.473 4.473 0 0 1-2.166-1.555 4.104 4.104 0 0 1-.823-2.454c0-.879.288-1.736.823-2.454a4.477 4.477 0 0 1 2.166-1.554l.472-.149a5.846 5.846 0 0 1 4.103.469c1.253.649 2.195 1.73 2.631 3.018l-.202-.106Zm21.235-5.656c1.347 3.998-3.12 7.124-7.362 5.189-4.243-1.935-4.49-7.145-.472-8.676l.494-.17a6.48 6.48 0 0 1 4.415.487c1.357.676 2.4 1.806 2.925 3.17Zm20.945-6.038c1.683 4.253-3.031 7.868-7.767 5.784-4.737-2.084-5.523-7.783-.382-9.591a7.19 7.19 0 0 1 4.837.439c1.501.701 2.68 1.899 3.312 3.368Zm20.45-6.381c1.998 4.615-2.874 8.506-7.992 6.38-5.118-2.127-6.24-8.208-.83-10.25a7.813 7.813 0 0 1 5.182.396c1.621.719 2.913 1.968 3.64 3.517v-.043Zm20.046-6.718c2.244 4.891-2.649 9.08-8.194 6.889-5.544-2.19-7.004-8.633-1.347-10.887 1.833-.518 3.8-.4 5.548.333 1.749.733 3.164 2.032 3.993 3.665Zm19.507-7.061c2.559 4.848-1.863 9.292-7.61 7.676-6.286-1.786-8.306-8.974-3.233-11.483l.606-.255a9.091 9.091 0 0 1 5.898.269c1.871.742 3.407 2.085 4.339 3.793Zm19.013-7.401c2.918 5.104-1.527 9.888-7.632 8.272-6.735-1.786-9.114-9.335-3.929-12.078l.629-.277a9.728 9.728 0 0 1 6.238.186c1.994.744 3.653 2.122 4.694 3.897Zm18.385-7.696c3.277 5.295-1.078 10.398-7.498 8.782-6.981-1.722-9.899-9.59-4.647-12.525l.629-.319a10.257 10.257 0 0 1 6.519.094c2.097.74 3.862 2.141 4.997 3.968Zm17.779-8.017c3.569 5.359-.763 10.866-7.34 9.314-7.274-1.68-10.641-9.824-5.41-12.992l.628-.319c2.199-.743 4.6-.752 6.805-.025s4.081 2.146 5.317 4.022Zm17.083-8.292c3.95 5.528-.225 11.312-7.071 9.845-7.565-1.616-11.449-10.015-6.196-13.418l.628-.361c5.208-2.127 10.529.978 12.639 3.934Zm16.319-8.635c4.063 5.316.786 11.121-5.814 10.356-7.947-.893-13.132-10.037-7.812-13.78l.629-.382c5.163-2.361 10.707.808 12.997 3.806Zm15.49-8.845c4.31 5.316 1.369 11.249-5.253 10.632-7.947-.787-13.469-9.931-8.485-13.779l.606-.405c5.028-2.509 10.707.596 13.132 3.573v-.021Zm14.276-8.869c4.49 5.103 1.976 10.951-4.354 10.398-7.655-.638-13.604-9.527-8.98-13.375l.539-.405c4.624-2.487 10.259.468 12.773 3.382h.022Zm13.155-8.91c4.489 4.912 2.581 10.632-3.457 10.143-7.273-.553-13.469-9.122-9.316-12.886.154-.139.319-.267.494-.383 4.197-2.467 9.697.34 12.279 3.126Zm11.987-8.888c4.489 4.636 3.053 10.079-2.559 9.697-6.533-.447-13.604-8.655-8.979-12.589 3.748-2.403 8.979.234 11.628 2.892h-.09Zm10.999-9.016c4.49 4.359 3.48 9.505-1.706 9.207-6.061-.34-13.109-8.038-9.203-11.823 3.3-2.318 8.373.128 10.909 2.616Zm9.765-8.825c4.153 3.849 3.974 8.506-.336 8.697-5.545.276-13.469-7.272-9.833-11.079 2.874-2.126 7.678 0 10.169 2.382Zm8.8-8.91c4.018 3.573 4.153 7.911.269 8.144-4.983.298-12.571-6.677-9.675-10.27 2.469-2.127 6.981 0 9.406 2.126Zm7.789-8.91c3.884 3.318 4.333 7.379.808 7.656-4.489.319-11.897-6.167-9.518-9.569 2.088-1.999 6.353 0 8.71 1.913Zm6.69-8.844c3.681 3.019 4.355 6.741 1.279 7.017-3.973.362-10.999-5.529-9.114-8.697 1.684-1.85 5.59-.128 7.835 1.68Zm5.679-8.784c3.502 2.722 4.49 6.167 1.684 6.38-3.502.34-10.192-5.019-8.777-7.953 1.369-1.723 4.983-.149 7.093 1.509v.064Zm4.669-8.76c3.3 2.467 4.355 5.614 1.998 5.89-3.053.341-9.384-4.508-8.373-7.208 1.077-1.595 4.489-.192 6.375 1.318Zm3.749-8.634c3.053 2.233 4.243 5.083 2.245 5.359-2.649.362-8.553-4.019-7.902-6.507.808-1.467 3.794-.191 5.68 1.148h-.023Zm2.537-8.634c2.806 1.978 4.085 4.53 2.357 4.763-2.245.34-7.633-3.55-7.296-5.741.561-1.318 3.21-.213 4.939.978Zm1.615-8.379c2.559 1.744 3.884 3.998 2.447 4.253-1.84.32-6.734-3.126-6.734-5.124.337-1.17 2.716-.192 4.287.871Zm.607-8.505c2.245 1.488 3.569 3.445 2.424 3.657-1.145.213-5.948-2.679-6.061-4.423.157-1 2.245-.148 3.637.766Zm-.404-8.229c2.042 1.297 3.299 2.998 2.402 3.19a8.082 8.082 0 0 1-3.183-1.318 7.575 7.575 0 0 1-2.272-2.489c0-.893 1.84-.17 3.053.617Zm-1.392-8.123c1.773 1.105 2.985 2.55 2.245 2.721a7.602 7.602 0 0 1-2.745-1.146 7.16 7.16 0 0 1-2.037-2.086c0-.766 1.459-.149 2.514.51h.023Zm-2.38-7.953c1.437.894 2.537 2.127 2.043 2.127-1.629-.385-3.056-1.313-4.018-2.616-.135-.553.92-.234 1.975.404v.085Zm-3.389-7.783c1.19.702 2.245 1.638 1.796 1.765a6.443 6.443 0 0 1-3.3-2.126c-.18-.447.606-.128.853 0a6 6 0 0 1 .651.34v.021Zm-4.355-7.59c.898.51 1.661 1.19 1.459 1.275a5.18 5.18 0 0 1-2.514-1.51s-.135-.276.291-.127c.266.097.522.218.764.362Zm-5.365-7.4c.561.298 1.167.765 1.033.83a4.038 4.038 0 0 1-1.662-1c0-.128 0 0 0 0 .2.066.389.16.562.276l.067-.106Zm-5.747-6.827-.292-.064-.606-.404.27.043.628.425Zm-7.766-7.294-.045-.021-.135-.086h.022l.158.107ZM.561 329.814l-.067-.064.067-.064.068.064-.068.064Zm22.919-1.363-.538-.426.494-.531.538.425-.493.532Zm23.863-2.679a.882.882 0 0 1-.168.499.96.96 0 0 1-.43.33 1.022 1.022 0 0 1-.55.051.98.98 0 0 1-.49-.242.9.9 0 0 1-.24-.45.872.872 0 0 1 .05-.502.928.928 0 0 1 .32-.401.998.998 0 0 1 .498-.178.949.949 0 0 1 .39.034.895.895 0 0 1 .557.493c.05.116.07.241.063.366Zm23.435-2.657c0 .261-.081.517-.232.735a1.4 1.4 0 0 1-.62.493 1.49 1.49 0 0 1-.803.092 1.445 1.445 0 0 1-.725-.342 1.3 1.3 0 0 1-.383-.632 1.251 1.251 0 0 1 .03-.728 1.32 1.32 0 0 1 .434-.602c.201-.158.446-.259.705-.292.195-.027.394-.014.584.037.19.051.366.14.517.261.15.121.272.27.357.439.085.169.132.352.136.539Zm23.413-3.083c.007.355-.095.704-.294 1.005-.2.301-.487.541-.827.689-.34.149-.72.201-1.09.149a1.968 1.968 0 0 1-.999-.44 1.757 1.757 0 0 1-.567-.853 1.678 1.678 0 0 1 .018-1.009c.11-.327.318-.617.599-.834a1.92 1.92 0 0 1 .983-.387c.267-.049.541-.044.805.017s.511.175.724.334c.214.16.388.361.511.59.124.23.194.482.205.739h-.068Zm23.256-3.488c.052.435-.039.875-.261 1.26a2.194 2.194 0 0 1-.98.887 2.36 2.36 0 0 1-1.34.192 2.297 2.297 0 0 1-1.212-.574 2.116 2.116 0 0 1-.693-1.004 2.018 2.018 0 0 1-.01-1.199c.119-.392.354-.744.677-1.013.324-.27.722-.445 1.148-.506.314-.058.637-.052.948.018.311.07.603.202.856.387s.461.419.611.687c.149.268.237.562.256.865Zm23.234-3.914c.017.5-.117.995-.387 1.425-.27.431-.665.778-1.138 1.002a2.9 2.9 0 0 1-1.529.262 2.849 2.849 0 0 1-1.436-.563 2.5 2.5 0 0 1-.812-1.168 2.375 2.375 0 0 1-.026-1.399 2.49 2.49 0 0 1 .77-1.195c.371-.321.83-.535 1.325-.618.377-.07.765-.067 1.14.01.376.077.731.225 1.044.436.313.211.577.48.777.791.199.311.33.657.384 1.017h-.112Zm23.077-4.294c.065.598-.058 1.2-.354 1.731-.295.531-.75.967-1.307 1.254a3.368 3.368 0 0 1-1.822.356 3.303 3.303 0 0 1-1.725-.661 2.961 2.961 0 0 1-1.094-1.333 2.79 2.79 0 0 1-.138-1.683c.129-.562.43-1.075.864-1.477a3.163 3.163 0 0 1 1.58-.781 3.548 3.548 0 0 1 1.343-.001c.443.084.863.253 1.236.495s.691.553.934.914c.243.361.408.764.483 1.186Zm22.784-4.764a3.2 3.2 0 0 1-.334 1.943 3.446 3.446 0 0 1-1.427 1.433 3.71 3.71 0 0 1-3.963-.293 3.278 3.278 0 0 1-1.292-1.44 3.068 3.068 0 0 1-.221-1.878 3.171 3.171 0 0 1 .925-1.674 3.466 3.466 0 0 1 1.755-.898c.988-.189 2.015 0 2.856.526a3.62 3.62 0 0 1 1.634 2.281h.067Zm22.582-5.018a3.52 3.52 0 0 1-.293 2.181 3.771 3.771 0 0 1-1.547 1.638 4.077 4.077 0 0 1-2.255.518 4.038 4.038 0 0 1-2.168-.786 3.696 3.696 0 0 1-1.493-1.555 3.452 3.452 0 0 1-.328-2.079c.111-.709.441-1.37.949-1.9a3.857 3.857 0 0 1 1.905-1.079 4.56 4.56 0 0 1 1.699-.068 4.475 4.475 0 0 1 1.594.56c.487.285.909.659 1.242 1.1.332.442.569.941.695 1.47Zm22.314-5.486a3.827 3.827 0 0 1-.198 2.312 4.06 4.06 0 0 1-1.513 1.823 4.403 4.403 0 0 1-2.325.728 4.421 4.421 0 0 1-2.362-.61 4.187 4.187 0 0 1-1.931-1.592 3.847 3.847 0 0 1 .315-4.615 4.274 4.274 0 0 1 2.132-1.342 5.111 5.111 0 0 1 3.647.499c1.1.612 1.902 1.609 2.235 2.776v.021Zm21.931-5.848a4.044 4.044 0 0 1-.056 2.536 4.28 4.28 0 0 1-1.57 2.054 4.657 4.657 0 0 1-2.526.842 4.676 4.676 0 0 1-2.582-.669c-3.682-1.807-4.153-6.762.269-8.208a5.676 5.676 0 0 1 3.968.499c1.207.641 2.108 1.695 2.52 2.946h-.023Zm21.595-6.209c.301.889.307 1.843.019 2.735a4.576 4.576 0 0 1-1.633 2.256 4.982 4.982 0 0 1-2.701.969 5.043 5.043 0 0 1-2.801-.665c-4.063-1.871-4.759-7.272 0-8.91a6.157 6.157 0 0 1 4.348.443c1.335.674 2.343 1.811 2.813 3.172h-.045Zm21.124-6.571a4.59 4.59 0 0 1 .071 2.866 4.813 4.813 0 0 1-1.656 2.398 5.262 5.262 0 0 1-2.8 1.087 5.332 5.332 0 0 1-2.956-.609c-4.31-1.914-5.275-7.74-.426-9.569a6.741 6.741 0 0 1 4.662.44c1.44.698 2.548 1.885 3.105 3.324v.063Zm20.674-7.016c.46.971.582 2.055.348 3.097a4.962 4.962 0 0 1-1.647 2.695 5.443 5.443 0 0 1-3.01 1.255 5.532 5.532 0 0 1-3.211-.668c-4.624-1.956-5.859-8.144-.831-10.164a7.266 7.266 0 0 1 4.943.373c1.542.699 2.756 1.914 3.408 3.412Zm20.114-7.168c2.132 4.721-2.469 8.825-7.588 6.762-5.118-2.062-6.509-8.378-1.257-10.632a7.675 7.675 0 0 1 5.21.34c1.633.719 2.927 1.984 3.635 3.552v-.022Zm19.574-7.613a5.08 5.08 0 0 1 .623 3.287 5.219 5.219 0 0 1-1.57 2.99 5.727 5.727 0 0 1-3.143 1.513 5.886 5.886 0 0 1-3.475-.56c-5.23-2.127-7.093-8.655-1.773-11.1a8.103 8.103 0 0 1 5.442.261c1.719.713 3.105 1.996 3.896 3.609Zm18.946-7.931c.578.949.837 2.041.744 3.133a5.24 5.24 0 0 1-1.264 2.979 5.73 5.73 0 0 1-2.825 1.773 6.004 6.004 0 0 1-3.389-.06c-5.994-1.658-8.171-8.846-3.457-11.504l.561-.276a8.451 8.451 0 0 1 5.591.282c1.767.726 3.201 2.03 4.039 3.673Zm18.34-8.229c2.806 4.955-1.078 9.761-6.735 8.293-6.173-1.616-8.709-9.016-4.04-11.823l.539-.297a8.758 8.758 0 0 1 5.854.101c1.874.704 3.415 2.028 4.337 3.726h.045Zm17.577-8.549c3.053 5.04-.629 10.037-6.376 8.634-5.746-1.404-9.495-9.229-4.018-12.355a8.904 8.904 0 0 1 5.932.019c1.91.683 3.495 1.998 4.462 3.702Zm16.791-8.823c3.277 5.061-.18 10.207-5.949 8.888-5.769-1.318-9.9-9.207-4.49-12.482 4.355-1.999 8.777.914 10.528 3.594h-.089Zm16.027-9.103c3.48 5.04.292 10.271-5.477 9.059-5.769-1.212-10.214-9.059-5.096-12.483 4.221-2.126 8.733.745 10.573 3.424Zm14.906-9.186c3.569 4.89.83 10.1-4.759 8.952-5.59-1.148-10.236-8.825-5.545-12.206 3.906-2.126 8.373.638 10.304 3.254Zm13.738-9.251c3.435 4.466 1.572 9.463-3.345 8.931-5.746-.616-11.223-8.506-6.734-12.036 3.592-2.126 7.992.553 9.967 3.105h.112Zm12.616-9.206c3.479 4.253 2.02 9.123-2.604 8.655-5.433-.532-10.91-8.123-6.937-11.568 3.255-2.126 7.543.447 9.541 2.913Zm11.426-9.336c3.502 4.104 2.424 8.803-1.908 8.505-5.096-.467-10.663-7.74-7.161-11.121 2.895-2.126 7.048.383 8.979 2.722l.09-.106Zm10.281-9.229c3.434 3.828 2.761 8.293-1.212 7.953-4.692-.404-10.214-7.251-7.229-10.483 2.515-1.935 6.443.297 8.441 2.53Zm9.204-9.272c3.367 3.594 3.008 7.804-.606 7.527-4.288-.34-9.743-6.74-7.251-9.824 2.245-1.871 5.904.213 7.857 2.297Zm8.126-9.227c3.255 3.36 3.232 7.315 0 7.081-3.906-.276-9.249-6.273-7.184-9.186 1.841-1.765 5.321.17 7.229 2.126l-.045-.021Zm7.026-9.186c3.12 3.083 3.345 6.783.427 6.592-3.48-.234-8.643-5.741-7.004-8.506 1.504-1.658 4.759.128 6.577 1.914Zm5.948-9.037c2.829 2.7 3.457 5.933 1.168 6.081-2.986.192-8.441-5.124-7.116-7.804 1.212-1.552 4.198 0 5.948 1.723Zm4.872-9.187c2.694 2.467 3.479 5.444 1.482 5.593-2.582.213-7.767-4.657-6.735-7.124.943-1.446 3.682 0 5.32 1.531h-.067Zm3.726-8.974c2.469 2.126 3.367 4.869 1.706 5.018-2.245.192-6.981-4.253-6.375-6.379.696-1.297 3.142 0 4.669 1.361Zm2.851-8.909c2.245 1.978 3.3 4.402 1.885 4.53-1.863.191-6.33-3.722-5.971-5.742.472-1.19 2.672 0 4.086 1.212Zm1.639-8.805c2.087 1.744 3.12 3.87 1.953 3.998-1.505.17-5.545-3.254-5.455-5.061.292-1.042 2.244 0 3.502 1.063Zm.74-8.675c1.841 1.51 2.874 3.338 1.953 3.466-.92.127-4.803-2.807-4.893-4.38.134-.894 1.796 0 2.94.914Zm-.381-8.612c1.594 1.276 2.626 2.85 1.908 2.956-.719.106-4.086-2.382-4.31-3.722 0-.787 1.414 0 2.402.766Zm-1.414-8.358c1.392 1.085 2.379 2.425 1.841 2.53-.539.107-3.48-2.125-3.817-3.189 0-.659 1.123 0 1.976.66Zm-2.447-8.228c1.123.85 1.953 1.892 1.594 1.977-.359.085-2.694-1.595-3.075-2.488 0-.425.471-.128.718 0 .268.15.523.321.763.51Zm-3.479-8.06c.875.637 1.593 1.445 1.347 1.488-.247.042-2.021-1.212-2.402-1.893 0 0 0-.255.224-.127.297.147.576.325.831.532Zm-4.49-7.89c.606.447 1.167 1.02 1.033 1.042a4.654 4.654 0 0 1-1.751-1.319v-.106c.222.108.433.236.628.383h.09Zm-5.523-7.698c.404.298.764.638.674.638a3.931 3.931 0 0 1-1.1-.808s.404.213.449.234l-.023-.064Zm-6.352-7.292-.068-.042-.202-.17.09.042.18.17ZM48.443 347.931l-.382-.255.315-.383.359.319-.292.319Zm24.333-3a.672.672 0 0 1-.124.377.734.734 0 0 1-.32.254.78.78 0 0 1-.79-.12.691.691 0 0 1-.198-.332.666.666 0 0 1 .014-.381.699.699 0 0 1 .223-.317.758.758 0 0 1 .364-.161.763.763 0 0 1 .575.166.671.671 0 0 1 .256.514Zm24.087-3.083c.004.221-.06.438-.183.626a1.203 1.203 0 0 1-.512.432 1.276 1.276 0 0 1-1.303-.165 1.138 1.138 0 0 1-.331-.537 1.091 1.091 0 0 1 .013-.623c.065-.202.188-.384.355-.524.167-.141.372-.235.591-.272a1.272 1.272 0 0 1 .929.25c.128.1.234.224.31.363.075.14.12.293.13.45Zm23.952-3.657c.013.294-.065.584-.224.837a1.56 1.56 0 0 1-.671.583 1.67 1.67 0 0 1-1.732-.208 1.484 1.484 0 0 1-.477-.696 1.415 1.415 0 0 1-.01-.83c.08-.272.24-.517.462-.706.221-.189.495-.315.788-.362.22-.036.446-.029.662.023.216.051.419.145.594.276.176.13.321.294.425.48.105.187.167.392.183.603Zm23.907-3.998a1.86 1.86 0 0 1-.252 1.092 2 2 0 0 1-.847.778 2.134 2.134 0 0 1-2.246-.233 1.944 1.944 0 0 1-.636-.883 1.84 1.84 0 0 1-.044-1.067c.092-.353.286-.674.561-.927.275-.253.619-.428.994-.504a2.184 2.184 0 0 1 1.64.357c.232.164.426.372.569.611.143.238.231.503.261.776Zm23.727-4.424c.069.467-.013.942-.235 1.364a2.395 2.395 0 0 1-1.007 1.001c-.434.23-.931.33-1.427.287a2.531 2.531 0 0 1-1.349-.526 2.364 2.364 0 0 1-.804-1.054 2.249 2.249 0 0 1-.092-1.298c.099-.432.323-.829.648-1.147a2.527 2.527 0 0 1 1.19-.647 2.77 2.77 0 0 1 1.058.022c.347.076.674.217.962.416.287.199.529.451.711.741.182.29.299.613.345.947v-.106Zm23.391-4.806a2.48 2.48 0 0 1-.225 1.553 2.657 2.657 0 0 1-1.127 1.146 2.868 2.868 0 0 1-1.619.323 2.815 2.815 0 0 1-1.519-.619 2.662 2.662 0 0 1-.962-1.163 2.509 2.509 0 0 1-.15-1.471c.099-.494.345-.951.709-1.317a2.82 2.82 0 0 1 1.346-.748 3.092 3.092 0 0 1 2.27.437c.328.215.606.491.817.81.212.32.353.677.415 1.049h.045Zm23.234-5.23a2.816 2.816 0 0 1-.233 1.736 3.023 3.023 0 0 1-1.228 1.307 3.264 3.264 0 0 1-3.523-.194 3.043 3.043 0 0 1-1.125-1.289 2.86 2.86 0 0 1-.221-1.66 2.93 2.93 0 0 1 .753-1.514 3.197 3.197 0 0 1 1.491-.896c.442-.093.9-.102 1.346-.026.446.076.872.236 1.252.469.381.234.708.537.964.892.255.354.433.754.524 1.175Zm22.941-5.529a3.134 3.134 0 0 1-.213 1.939 3.348 3.348 0 0 1-1.334 1.486 3.628 3.628 0 0 1-1.986.512 3.61 3.61 0 0 1-1.944-.641 3.425 3.425 0 0 1-1.311-1.412 3.207 3.207 0 0 1-.305-1.858 3.286 3.286 0 0 1 .797-1.723 3.57 3.57 0 0 1 1.65-1.046 4.027 4.027 0 0 1 2.93.448c.433.256.807.59 1.102.984.294.394.503.84.614 1.311Zm22.56-6.082a3.4 3.4 0 0 1-.144 2.142 3.614 3.614 0 0 1-1.415 1.677 3.92 3.92 0 0 1-2.174.607 3.919 3.919 0 0 1-2.149-.684 3.77 3.77 0 0 1-1.515-1.51 3.513 3.513 0 0 1-.406-2.048 3.58 3.58 0 0 1 .834-1.929 3.894 3.894 0 0 1 1.806-1.19 4.494 4.494 0 0 1 3.217.464c.966.55 1.665 1.437 1.946 2.471Zm22.156-6.358c.2.72.171 1.48-.083 2.184a3.797 3.797 0 0 1-1.345 1.776 4.132 4.132 0 0 1-2.158.776 4.178 4.178 0 0 1-2.25-.483 4.227 4.227 0 0 1-1.862-1.528 3.896 3.896 0 0 1-.667-2.246 3.917 3.917 0 0 1 .747-2.224 4.253 4.253 0 0 1 1.917-1.466 4.923 4.923 0 0 1 3.521.447c1.066.581 1.849 1.535 2.18 2.657v.107Zm21.708-6.698c.287.766.32 1.596.094 2.379a3.958 3.958 0 0 1-1.356 2.004 4.328 4.328 0 0 1-2.322.911 4.399 4.399 0 0 1-2.455-.509 4.475 4.475 0 0 1-2.167-1.53 4.111 4.111 0 0 1-.848-2.431 4.099 4.099 0 0 1 .779-2.451 4.465 4.465 0 0 1 2.124-1.584 5.28 5.28 0 0 1 3.765.42c1.149.6 2.005 1.602 2.386 2.791Zm21.257-7.145a4.03 4.03 0 0 1 .105 2.48 4.223 4.223 0 0 1-1.374 2.114 4.613 4.613 0 0 1-2.387 1.026 4.707 4.707 0 0 1-2.584-.41c-3.682-1.659-4.49-6.848-.382-8.506a5.682 5.682 0 0 1 4.085.352c1.259.62 2.211 1.685 2.65 2.965l-.113-.021Zm20.675-7.443c.442.821.59 1.755.423 2.663a4.194 4.194 0 0 1-1.349 2.37 4.606 4.606 0 0 1-2.581 1.127 4.694 4.694 0 0 1-2.778-.567c-3.884-1.68-4.939-7.102-.719-8.931a5.966 5.966 0 0 1 4.208.341c1.304.621 2.305 1.695 2.796 2.997Zm20.046-7.781c.448.836.606 1.785.451 2.711a4.37 4.37 0 0 1-1.316 2.445 4.789 4.789 0 0 1-2.581 1.246 4.915 4.915 0 0 1-2.862-.427c-4.153-1.743-5.432-7.357-1.055-9.377a6.275 6.275 0 0 1 4.395.316c1.368.633 2.43 1.736 2.968 3.086Zm19.552-8.124c.527.839.753 1.816.645 2.787a4.423 4.423 0 0 1-1.242 2.599 4.862 4.862 0 0 1-2.637 1.38 5.022 5.022 0 0 1-2.984-.387c-4.287-1.722-5.791-7.485-1.392-9.633a6.426 6.426 0 0 1 4.506.236c1.415.621 2.526 1.731 3.104 3.103v-.085Zm18.834-8.442c2.245 4.253-1.571 8.378-6.083 6.634-4.512-1.743-6.151-7.655-1.796-9.973a6.61 6.61 0 0 1 4.64.186c1.465.62 2.624 1.749 3.239 3.153Zm18.093-8.741c2.245 4.253-.898 8.251-5.298 7.039-4.399-1.212-7.16-7.783-2.716-10.314a6.683 6.683 0 0 1 4.695.128c1.49.609 2.678 1.735 3.319 3.147Zm17.329-9.057c2.245 4.253-.583 8.314-4.983 7.208-4.4-1.105-7.363-7.697-3.053-10.334 3.457-1.595 6.734.872 8.036 3.126Zm16.567-9.358c2.447 4.253-.247 8.506-4.647 7.379-4.4-1.127-7.587-7.634-3.434-10.377 3.367-1.68 6.734.744 8.081 2.998Zm15.467-9.482c2.559 4.104.202 8.379-4.086 7.358-4.287-1.021-7.655-7.485-3.816-10.271 3.143-1.68 6.51.681 7.902 2.913Zm14.209-9.486c2.604 3.955.629 8.123-3.412 7.187-4.041-.935-7.61-7.251-4.153-9.994 2.851-1.659 6.151.638 7.565 2.807Zm13.065-9.546c2.649 3.827 1.01 7.889-2.828 6.996-3.839-.893-7.453-6.975-4.49-9.633 2.604-1.659 5.792.553 7.228 2.637h.09Zm11.92-9.59c2.536 3.509 1.548 7.315-1.819 6.89-3.906-.489-7.901-6.635-5.05-9.378 2.244-1.616 5.409.489 6.869 2.488Zm10.73-9.569c2.537 3.339 1.841 6.996-1.257 6.613-3.614-.425-7.632-6.379-5.185-8.952 2.042-1.573 5.006.425 6.442 2.339Zm9.607-9.569c2.47 3.126 2.043 6.677-.763 6.379-3.322-.404-7.34-5.975-5.253-8.505 1.774-1.51 4.49.361 6.016 2.126Zm8.463-9.527c2.447 2.977 2.245 6.273-.291 5.976-3.031-.362-6.959-5.614-5.253-8.017 1.504-1.446 4.153.319 5.544 2.126v-.085Zm7.318-9.486c2.245 2.722 2.38 5.763 0 5.529-2.671-.298-6.442-5.125-5.073-7.379 1.212-1.339 3.637.277 4.983 1.85h.09Zm6.219-9.44c2.244 2.509 2.446 5.316.449 5.104-2.245-.255-5.972-4.678-4.939-6.784.988-1.254 3.21.234 4.49 1.68Zm5.096-9.378c2.065 2.276 2.491 4.849.763 4.679-2.065-.213-5.5-4.253-4.737-6.21.741-1.148 2.784.213 3.974 1.531Zm3.995-9.272c1.908 2.02 2.447 4.253.965 4.253-1.481 0-4.893-3.785-4.489-5.529.561-1.041 2.357.171 3.457 1.361l.067-.085Zm2.918-9.185c1.706 1.786 2.245 3.807 1.122 3.679-1.122-.128-4.354-3.339-4.085-4.87.382-.914 1.953.128 2.963 1.191Zm1.819-9.1c1.436 1.467 2.244 3.168 1.324 3.211-.92.042-3.906-2.85-3.816-4.253.224-.787 1.616.149 2.492 1.042Zm.83-9.038c1.279 1.297 1.998 2.743 1.347 2.807-.651.063-3.367-2.446-3.412-3.7 0-.68 1.257 0 2.065.893Zm-.449-8.782c1.1 1.042 1.796 2.297 1.324 2.34-.471.042-2.783-2.127-2.963-3.084 0-.596.965 0 1.639.744Zm-1.415-8.677c.876.829 1.482 1.786 1.168 1.828-.314.043-2.245-1.616-2.38-2.403 0-.425.606 0 .719.15l.493.425Zm-2.469-8.484c.651.617 1.168 1.319.943 1.319a4.63 4.63 0 0 1-1.796-1.765s0-.213.202 0c.238.145.456.317.651.51v-.064Zm-3.546-8.356c.449.404.808.893.718.914a3.672 3.672 0 0 1-1.257-1.212c0-.106 0 0 0 0 .183.096.35.218.494.362l.045-.064Zm-4.243-7.743-.179-.106-.427-.425.225.106.381.425Zm-5.993-8.293-.068-.064.045.022.023.042Zm-451.068 317.8-.247-.191.18-.191.201.148-.134.234Zm24.266-3.253-.741-.489.516-.659.674.468-.449.68Zm24.872-4.786a.856.856 0 0 1-.11.511.928.928 0 0 1-.393.366.986.986 0 0 1-1.046-.112.91.91 0 0 1-.299-.414.86.86 0 0 1-.022-.502.903.903 0 0 1 .26-.437.973.973 0 0 1 .465-.241 1.037 1.037 0 0 1 .756.187.941.941 0 0 1 .389.642Zm24.288-4.423c.048.263.007.533-.117.773a1.3 1.3 0 0 1-.571.563 1.405 1.405 0 0 1-1.556-.188 1.314 1.314 0 0 1-.433-.589 1.25 1.25 0 0 1-.043-.716c.056-.238.18-.456.359-.631s.406-.3.655-.36a1.448 1.448 0 0 1 1.084.236c.153.107.282.244.378.401.095.157.156.331.177.511h.067Zm24.109-4.933c.052.327-.002.662-.153.96a1.704 1.704 0 0 1-.696.714 1.825 1.825 0 0 1-1.957-.122 1.716 1.716 0 0 1-.589-.756 1.612 1.612 0 0 1-.076-.936c.068-.313.227-.602.46-.833a1.824 1.824 0 0 1 1.614-.491 1.9 1.9 0 0 1 .701.273c.211.136.39.312.525.517.136.205.225.434.261.674h-.09Zm23.706-5.316a1.82 1.82 0 0 1-.113 1.161 1.955 1.955 0 0 1-.803.884 2.113 2.113 0 0 1-2.339-.153 2.117 2.117 0 0 1-.638-.885 2.014 2.014 0 0 1-.101-1.067c.063-.358.221-.695.461-.979a2.24 2.24 0 0 1 .906-.641 2.347 2.347 0 0 1 1.68.326c.492.315.833.802.947 1.354Zm23.525-5.72c.169.452.171.945.006 1.399a2.148 2.148 0 0 1-.912 1.1 2.353 2.353 0 0 1-1.437.325 2.304 2.304 0 0 1-1.338-.591 2.34 2.34 0 0 1-.887-.978 2.194 2.194 0 0 1-.191-1.275c.067-.434.262-.841.564-1.173a2.458 2.458 0 0 1 1.142-.7 2.656 2.656 0 0 1 1.013-.028c.336.056.657.176.943.353.286.177.53.407.719.677.188.27.317.573.378.891Zm23.121-6.124c.136.486.11 1-.074 1.472a2.469 2.469 0 0 1-.954 1.165 2.681 2.681 0 0 1-1.487.433 2.674 2.674 0 0 1-1.48-.455 2.713 2.713 0 0 1-1.023-1.095 2.537 2.537 0 0 1-.256-1.441 2.59 2.59 0 0 1 .587-1.352c.325-.39.759-.686 1.253-.854a3.079 3.079 0 0 1 1.152-.034c.382.062.748.197 1.074.395.327.198.608.457.827.76.219.303.372.645.449 1.006h-.068Zm22.673-6.509a2.543 2.543 0 0 1-.02 1.565c-.17.508-.497.956-.938 1.287a2.965 2.965 0 0 1-3.15.232 3.033 3.033 0 0 1-1.254-1.137 2.812 2.812 0 0 1-.412-1.596c.026-.558.22-1.098.559-1.556a3.08 3.08 0 0 1 1.354-1.028 3.37 3.37 0 0 1 1.25-.058c.417.06.816.198 1.176.406.36.208.672.482.918.806.247.323.422.69.517 1.079Zm22.246-6.867c.207.547.233 1.141.074 1.703a2.836 2.836 0 0 1-.965 1.438 3.094 3.094 0 0 1-1.659.659 3.139 3.139 0 0 1-1.76-.356 3.293 3.293 0 0 1-1.441-1.169 3.047 3.047 0 0 1-.538-1.723c0-.611.187-1.209.538-1.723a3.307 3.307 0 0 1 1.441-1.169c.439-.118.899-.15 1.352-.096.453.055.89.196 1.284.414.394.219.738.51 1.01.858.272.347.467.743.574 1.164h.09Zm21.774-7.251c.235.577.279 1.209.125 1.81a3.016 3.016 0 0 1-.986 1.555 3.288 3.288 0 0 1-1.745.747 3.363 3.363 0 0 1-1.883-.327 3.601 3.601 0 0 1-1.645-1.268 3.318 3.318 0 0 1-.618-1.922c0-.684.215-1.353.618-1.921a3.601 3.601 0 0 1 1.645-1.268 3.877 3.877 0 0 1 2.783.372 3.535 3.535 0 0 1 1.706 2.116v.106Zm21.213-7.591c.255.588.317 1.235.179 1.858a3.13 3.13 0 0 1-.957 1.631 3.418 3.418 0 0 1-1.759.838 3.505 3.505 0 0 1-1.952-.245 3.7 3.7 0 0 1-1.67-.9 3.421 3.421 0 0 1-.958-1.577 3.298 3.298 0 0 1 .017-1.819 3.445 3.445 0 0 1 .988-1.561 3.73 3.73 0 0 1 1.687-.871 3.85 3.85 0 0 1 1.919.058 3.691 3.691 0 0 1 1.625.971c.44.455.745 1.013.881 1.617Zm20.63-7.953a3.11 3.11 0 0 1 .204 1.927 3.227 3.227 0 0 1-.98 1.699 3.53 3.53 0 0 1-1.821.878 3.632 3.632 0 0 1-2.027-.251 3.906 3.906 0 0 1-1.791-.913 3.613 3.613 0 0 1-1.047-1.652 3.45 3.45 0 0 1-.009-1.927 3.609 3.609 0 0 1 1.032-1.66 3.894 3.894 0 0 1 1.783-.928 4.037 4.037 0 0 1 2.033.065c.659.194 1.25.553 1.712 1.04.462.486.777 1.081.911 1.722Zm19.911-8.294c1.28 3.19-1.526 6.04-4.624 4.679-3.098-1.361-3.951-5.678-.741-7.273a4.442 4.442 0 0 1 3.258.231c.499.241.943.575 1.305.981.362.405.635.876.802 1.382Zm19.395-8.633c1.392 3.254-1.369 6.231-4.489 4.912-3.121-1.318-4.153-5.805-1.01-7.485a4.512 4.512 0 0 1 1.685-.223 4.486 4.486 0 0 1 1.646.412c.514.239.973.574 1.349.983.376.409.662.886.842 1.401h-.023Zm18.587-8.931c1.482 3.275-1.167 6.38-4.332 5.061-3.165-1.318-4.333-5.847-1.257-7.591a4.58 4.58 0 0 1 3.352.159c.52.236.986.566 1.37.973.384.407.679.883.867 1.398Zm17.846-9.272c1.572 3.318-.943 6.38-4.13 5.231-3.188-1.148-4.49-5.869-1.504-7.697a4.717 4.717 0 0 1 3.339.162 4.36 4.36 0 0 1 2.295 2.304Zm17.038-9.569c1.684 3.317-.673 6.592-3.884 5.38-3.21-1.212-4.669-5.848-1.773-7.761a4.524 4.524 0 0 1 3.361.056 4.295 4.295 0 0 1 1.397.942c.395.399.7.87.899 1.383Zm15.96-9.717c1.662 3.126-.134 6.38-3.12 5.508-2.985-.872-5.253-5.784-2.402-7.847 2.245-1.233 4.49.638 5.522 2.339Zm14.704-9.76c1.729 3.019.18 6.167-2.671 5.401-2.851-.765-5.186-5.614-2.604-7.655 2.088-1.212 4.355.574 5.275 2.254Zm13.513-9.803c1.751 2.935.472 6.018-2.244 5.295-2.717-.723-5.141-5.443-2.829-7.442 1.886-1.212 4.108.51 5.051 2.126l.022.021Zm12.324-9.824c1.796 2.892.786 5.805-1.773 5.124-2.559-.68-5.006-5.209-2.963-7.166 1.661-1.169 3.771.489 4.736 2.127v-.085Zm11.09-9.826c1.751 2.658.965 5.465-1.347 4.827-2.312-.638-4.737-4.891-3.008-6.741 1.436-1.105 3.412.447 4.355 1.914Zm9.944-9.845c1.616 2.424 1.235 4.976-.718 4.657-2.245-.404-4.827-4.529-3.3-6.38 1.257-1.084 3.098.362 4.018 1.723Zm8.8-9.801c1.571 2.126 1.347 4.635-.382 4.252-1.728-.382-4.489-4.252-3.3-5.996 1.055-1 2.806.34 3.682 1.637v.107Zm7.632-9.782c1.527 2.126 1.482 4.253 0 4.104-1.481-.149-4.265-3.934-3.255-5.593.876-.957 2.469.298 3.322 1.489h-.067Zm6.465-9.697c1.414 1.892 1.504 3.955.18 3.721-1.325-.234-3.884-3.594-3.12-5.082.673-.893 2.244.255 2.94 1.361Zm5.32-9.633c1.28 1.658 1.504 3.487.382 3.317-1.122-.17-3.412-3.169-2.896-4.508.516-.766 1.774.212 2.514 1.191Zm4.198-9.57c1.145 1.467 1.459 3.083.539 2.955a4.885 4.885 0 0 1-1.921-1.664 4.551 4.551 0 0 1-.773-2.355c.359-.701 1.482.192 2.245 1.064h-.09Zm3.053-9.463c1.032 1.276 1.369 2.679.628 2.53a4.71 4.71 0 0 1-1.65-1.446 4.4 4.4 0 0 1-.774-1.999c.247-.637 1.234.234 1.796.915Zm1.931-9.357c.875 1.063 1.257 2.127.695 2.127a4.413 4.413 0 0 1-1.397-1.227 4.132 4.132 0 0 1-.735-1.665c0-.447.853 0 1.437.765Zm.762-9.207c.674.787 1.033 1.659.719 1.659-.315 0-1.729-1.531-1.751-2.127-.023-.595.628 0 1.032.574v-.106Zm-.246-9.1c.516.595.853 1.275.628 1.275a3.187 3.187 0 0 1-1.369-1.701c0-.276.337 0 .449.128.108.089.206.188.292.298Zm-1.392-8.91c.314.362.606.83.449.808a2.508 2.508 0 0 1-.898-1.105s0-.128.157 0l.292.297Zm-2.267-8.443-.157-.107-.27-.34.18.106.247.34ZM176.754 376l-.089-.043.045-.106.089.064-.045.085Zm24.312-4.722-.427-.234.27-.404.404.256-.247.382Zm24.58-5.762a.603.603 0 0 1-.048.376.65.65 0 0 1-.266.284.7.7 0 0 1-1.039-.706.683.683 0 0 1 .16-.336.742.742 0 0 1 .318-.214.8.8 0 0 1 .568.127c.164.111.274.28.307.469Zm24.042-5.826a.852.852 0 0 1-.059.524.913.913 0 0 1-.36.402.985.985 0 0 1-1.401-.438.91.91 0 0 1-.066-.512.931.931 0 0 1 .224-.471c.119-.134.274-.235.45-.292a1.04 1.04 0 0 1 .785.146.99.99 0 0 1 .283.279c.074.11.122.233.144.362Zm23.525-6.23c.057.225.04.46-.05.675a1.143 1.143 0 0 1-.449.527 1.245 1.245 0 0 1-1.364-.033 1.194 1.194 0 0 1-.428-.416 1.118 1.118 0 0 1-.023-1.126 1.19 1.19 0 0 1 .411-.432 1.29 1.29 0 0 1 1.185-.093c.19.08.355.205.481.362.125.157.207.341.237.536Zm23.211-6.636c.091.259.096.539.015.801a1.343 1.343 0 0 1-.47.665c-.225.171-.5.273-.787.292a1.47 1.47 0 0 1-.823-.185 1.555 1.555 0 0 1-.618-.604 1.45 1.45 0 0 1 .133-1.611 1.58 1.58 0 0 1 .71-.506 1.612 1.612 0 0 1 1.231.173 1.5 1.5 0 0 1 .457.418c.121.168.203.357.242.557h-.09Zm22.853-6.995c.099.3.102.622.008.924a1.592 1.592 0 0 1-.533.773 1.766 1.766 0 0 1-1.855.196 1.866 1.866 0 0 1-.747-.691 1.74 1.74 0 0 1-.252-.958 1.75 1.75 0 0 1 .318-.942c.197-.279.471-.502.793-.642a1.923 1.923 0 0 1 1.424.218c.209.125.39.289.531.481a1.7 1.7 0 0 1 .29.641h.023Zm22.088-7.358c.426 1.573-1.033 2.807-2.447 2.126a2.024 2.024 0 0 1-.824-.721 1.884 1.884 0 0 1-.305-1.023c0-.361.106-.715.305-1.022.199-.308.484-.558.824-.721a2.059 2.059 0 0 1 1.518.215c.224.132.418.304.57.509a1.8 1.8 0 0 1 .314.679l.045-.042Zm21.774-7.635c.517 1.765-1.1 3.189-2.716 2.402a2.3 2.3 0 0 1-.922-.822 2.14 2.14 0 0 1-.341-1.155c0-.408.118-.807.341-1.156.222-.348.541-.633.922-.822.291-.076.594-.096.893-.059.299.037.587.131.847.276.26.145.486.337.665.567.18.23.308.491.379.769h-.068Zm21.079-8.207c.606 1.85-1.078 3.445-2.784 2.615a2.48 2.48 0 0 1-1.042-.843 2.3 2.3 0 0 1-.42-1.237 2.284 2.284 0 0 1 .328-1.262c.23-.383.569-.698.977-.91a2.35 2.35 0 0 1 1.854.162 2.2 2.2 0 0 1 .708.605c.187.247.317.529.379.827v.043Zm20.36-8.442c.674 1.956-.988 3.636-2.806 2.807a2.675 2.675 0 0 1-1.065-.882 2.46 2.46 0 0 1-.169-2.584c.215-.406.54-.751.942-1a2.58 2.58 0 0 1 1.927.197c.29.155.543.365.745.616.201.252.346.539.426.846Zm19.889-8.867c.741 2.126-.965 3.848-2.806 3.019a2.846 2.846 0 0 1-1.117-.908 2.617 2.617 0 0 1-.258-2.686 2.78 2.78 0 0 1 .926-1.084 2.64 2.64 0 0 1 2.011.154c.306.156.574.37.788.629.214.259.37.557.456.876Zm19.036-9.039c.808 2.127-.83 3.977-2.716 3.147a2.978 2.978 0 0 1-1.144-.922 2.775 2.775 0 0 1-.537-1.329 2.73 2.73 0 0 1 .204-1.41 2.88 2.88 0 0 1 .894-1.144 2.626 2.626 0 0 1 2.039.133c.311.157.584.373.801.636.217.263.374.566.459.889Zm18.273-9.442c.898 2.127-.651 4.104-2.604 3.275a3.104 3.104 0 0 1-1.176-.929 2.887 2.887 0 0 1-.573-1.344 2.829 2.829 0 0 1 .165-1.442c.18-.461.477-.872.866-1.197.33-.115.683-.163 1.035-.141a2.64 2.64 0 0 1 1.007.266c.312.154.588.368.808.629.22.26.381.561.472.883Zm17.464-9.758c.921 2.126-.561 4.125-2.447 3.338a3.19 3.19 0 0 1-1.183-.913 2.963 2.963 0 0 1-.604-1.327 2.885 2.885 0 0 1 .111-1.442c.159-.465.433-.887.801-1.23 1.504-.723 2.851.489 3.322 1.574Zm16.41-9.932c.987 2.127-.337 4.126-2.245 3.339-1.908-.787-2.672-3.7-1.01-4.87 1.369-.765 2.716.425 3.21 1.531h.045Zm15.152-9.994c.92 1.935 0 3.828-1.706 3.339-1.706-.489-2.941-3.552-1.347-4.806 1.257-.723 2.536.425 3.053 1.467Zm13.895-10.016c.943 1.829.113 3.7-1.414 3.211-1.526-.489-2.851-3.402-1.459-4.614 1.19-.744 2.402.468 2.873 1.403Zm12.683-10.057c.92 1.744.292 3.466-1.122 3.041-1.415-.425-2.694-3.211-1.504-4.253 1.01-.702 2.244.426 2.626 1.319v-.107Zm11.494-10.057c.897 1.637.426 3.274-.853 2.87-1.28-.404-2.559-2.998-1.549-4.082.83-.638 1.908.319 2.402 1.212Zm10.281-10.061c.875 1.51.516 3.041-.629 2.68-1.145-.362-2.379-2.786-1.549-3.785.741-.66 1.729.34 2.245 1.105h-.067Zm9.091-10.057c.785 1.318.628 2.701-.292 2.509-.92-.191-2.38-2.552-1.661-3.551.583-.574 1.504.255 1.953 1.042Zm7.879-10.036c.629 1.042.674 2.339 0 2.126-.673-.212-2.065-2.126-1.504-3.062.449-.51 1.212.213 1.616.872l-.112.064Zm6.712-9.91c.629.978.629 2.127 0 1.893a2.767 2.767 0 0 1-1.128-1.128 2.575 2.575 0 0 1-.286-1.53c.337-.447 1.033.17 1.392.765h.022Zm5.545-9.909c.516.808.673 1.787.135 1.659-.539-.128-1.549-1.616-1.28-2.297.269-.68.831.149 1.145.638Zm4.355-9.783c.449.681.561 1.361.179 1.298a2.29 2.29 0 0 1-.754-.794 2.14 2.14 0 0 1-.278-1.035c.157-.298.583.127.853.531Zm3.21-9.696c.314.447.471 1.021.202.957a1.9 1.9 0 0 1-.557-.587 1.802 1.802 0 0 1-.251-.753c0-.212.404 0 .606.383Zm2.267-9.079-.292-.17-.247-.574.292.191.247.553Zm.786-9.782-.112-.064-.112-.255.112.106.112.213ZM325.674 363.984l-.067-.022.045-.106.089.064-.067.064Zm22.583-7.315-.269-.107.134-.297.247.17-.112.234Zm22.043-7.592-.493-.255.202-.574.516.298-.225.531Zm21.483-8.079-.673-.319.269-.723.674.34-.27.702Zm20.832-8.486-.741-.34.269-.83.741.383-.269.787Zm20.54-9.653c.179.574-.292 1.169-.853.893a.87.87 0 0 1-.299-.307.814.814 0 0 1 0-.81.873.873 0 0 1 .299-.308.779.779 0 0 1 .61.058c.091.051.17.119.232.201a.676.676 0 0 1 .123.273h-.112Zm19.462-9.271c.224.68-.292 1.276-.876.999a1 1 0 0 1-.345-.317.93.93 0 0 1-.088-.883.98.98 0 0 1 .276-.373.845.845 0 0 1 .651.07.795.795 0 0 1 .247.214.734.734 0 0 1 .135.29Zm18.721-9.613c.247.744-.292 1.425-.92 1.106a1.117 1.117 0 0 1-.373-.343 1.018 1.018 0 0 1-.1-.953c.063-.155.163-.294.293-.406.517-.234.943.213 1.1.596Zm17.824-9.886c.247.66-.18 1.404-.831 1.106a1.12 1.12 0 0 1-.379-.334 1.045 1.045 0 0 1 .132-1.367c.494-.234.921.191 1.078.595Zm16.814-10.144c.269.68 0 1.424-.741 1.127a1.175 1.175 0 0 1-.373-.334 1.08 1.08 0 0 1 .081-1.367c.472-.234.898.191 1.033.574Zm15.533-10.142c.292.659 0 1.275-.628 1.042-.629-.234-.808-1.17-.292-1.574.516-.404.786.17.92.532Zm14.3-10.251c.225.51 0 1.127-.449.957-.449-.171-.785-1.064-.381-1.425.404-.362.695.149.83.468Zm13.042-10.249c.224.489 0 .978-.337.851a.934.934 0 0 1-.301-.234.883.883 0 0 1-.176-.329.848.848 0 0 1 .118-.713c.269-.191.561.149.696.425Zm11.83-9.57-.584-.276-.022-.83.584.319.022.787Zm10.596-10.44-.427-.191-.045-.638.427.234.045.595Zm9.383-10.398-.292-.17-.067-.468.314.192.045.446Zm8.104-10.485-.113-.042-.022-.17.112.063.023.149Z" fill="#193752"/></svg>