<svg width="131" height="31" fill="none" xmlns="http://www.w3.org/2000/svg"><path fill-rule="evenodd" clip-rule="evenodd" d="M74.487 20.487c0 .258-.024.526-.09.757-.285.969-1.263 1.79-2.484 1.79-1.016 0-1.828-.596-1.828-1.853 0-1.922 2.06-2.452 4.403-2.44v1.746Zm3.675-3.348c0-3.17-1.318-5.96-5.768-5.96-2.284 0-4.1.66-5.089 1.248l.724 2.548c.905-.588 2.347-1.073 3.711-1.073 2.258-.006 2.628 1.315 2.628 2.16v.2c-4.923-.008-8.032 1.744-8.032 5.314 0 2.18 1.585 4.224 4.337 4.224 1.695 0 3.111-.695 3.96-1.808h.085s.56 2.415 3.658 1.493c-.161-1.007-.215-2.081-.215-3.372V17.14ZM.978 7.74s3.19 13.005 3.7 15.116c.595 2.464 1.666 3.37 4.755 2.76l1.992-8.063c.506-2.004.845-3.431 1.17-5.469h.056c.228 2.059.553 3.471.97 5.475 0 0 .81 3.66 1.226 5.583.417 1.921 1.576 3.134 4.6 2.474l4.75-17.876h-3.834l-1.621 7.729c-.437 2.249-.83 4.007-1.137 6.066h-.054c-.278-2.038-.629-3.727-1.073-5.918L14.79 7.74h-3.996L8.99 15.418c-.512 2.333-.99 4.218-1.295 6.205H7.64c-.312-1.872-.728-4.24-1.175-6.498 0 0-1.075-5.491-1.45-7.385m26.472 12.747c0 .258-.021.526-.092.757-.284.969-1.26 1.79-2.48 1.79-1.02 0-1.828-.596-1.828-1.853 0-1.922 2.058-2.452 4.4-2.44v1.746Zm3.674-3.348c0-3.17-1.318-5.96-5.767-5.96-2.286 0-4.099.66-5.09 1.248l.726 2.548c.904-.588 2.345-1.073 3.71-1.073 2.259-.006 2.628 1.315 2.628 2.16v.2c-4.923-.008-8.031 1.744-8.031 5.314 0 2.18 1.583 4.224 4.335 4.224 1.694 0 3.111-.695 3.96-1.808h.083s.563 2.415 3.662 1.493c-.164-1.007-.217-2.081-.217-3.372V17.14Zm6.236 4.826V7.74h-3.44V25.8h3.44M90.415 7.74v13.103c0 1.803.349 3.07 1.097 3.844.652.675 1.727 1.113 3.015 1.113 1.098 0 2.177-.202 2.683-.387l-.048-2.818a5.79 5.79 0 0 1-1.408.163c-1.262 0-1.685-.786-1.685-2.409v-5.01h3.226v-3.4H94.07V7.74m-13.115 4.604V25.8h3.684v-6.89c0-.372.023-.697.08-.994.274-1.443 1.358-2.365 2.915-2.365.427 0 .733.047 1.061.095v-3.523a3.42 3.42 0 0 0-.81-.083c-1.377 0-2.94.903-3.597 2.842h-.1v-2.538m-40.212 0V25.8h3.758v-7.892c0-.37.043-.762.177-1.1.312-.795 1.072-1.726 2.283-1.726 1.516 0 2.226 1.247 2.226 3.049V25.8h3.753v-7.987c0-.353.05-.778.158-1.092.308-.904 1.126-1.64 2.254-1.64 1.538 0 2.275 1.227 2.275 3.346V25.8h3.756v-7.925c0-4.181-2.18-5.835-4.642-5.835-1.09 0-1.951.266-2.729.73-.655.392-1.24.946-1.752 1.676h-.055c-.594-1.45-1.99-2.406-3.812-2.406-2.338 0-3.388 1.153-4.027 2.132h-.056v-1.828m69.959-2.024c.735 0 1.343-.373 1.425-.855l.727-8.022c0-.792-.952-1.443-2.151-1.443-1.196 0-2.149.65-2.149 1.443l.727 8.022c.08.482.688.855 1.425.855m-4.981 2.563c.354-.667.326-1.418-.048-1.75l-6.515-4.964c-.677-.424-1.693.088-2.271 1.174-.576 1.084-.476 2.296.201 2.721l7.213 3.648c.454.183 1.068-.167 1.422-.832m9.094 0c.357.664.968 1.015 1.42.832l7.216-3.648c.679-.425.777-1.637.199-2.721-.577-1.086-1.592-1.599-2.27-1.174l-6.516 4.963c-.373.332-.398 1.084-.047 1.751m-4.121 7.757c.735 0 1.343.373 1.425.855l.727 8.02c0 .793-.952 1.445-2.151 1.445-1.196 0-2.149-.652-2.149-1.444l.727-8.02c.08-.483.688-.856 1.425-.856m4.115-3.42c.357-.667.968-1.014 1.42-.832l7.216 3.647c.679.426.777 1.638.199 2.723-.577 1.084-1.592 1.598-2.27 1.174l-6.516-4.963c-.373-.334-.398-1.085-.047-1.751m-9.098.001c.354.666.326 1.416-.048 1.75l-6.515 4.962c-.677.424-1.693-.088-2.271-1.17-.576-1.086-.476-2.3.201-2.726l7.213-3.646c.454-.184 1.068.164 1.422.832" fill="#787878"/></svg>