<svg width="96" height="30" viewBox="0 0 96 30" fill="none" xmlns="http://www.w3.org/2000/svg">
<path fill-rule="evenodd" clip-rule="evenodd" d="M59.8537 22.3922C54.2961 26.8624 46.2384 29.24 39.3003 29.24C29.5758 29.24 20.8196 25.3225 14.1924 18.8008C13.6722 18.2888 14.1363 17.589 14.7616 17.9857C21.9113 22.5203 30.7522 25.2512 39.8839 25.2512C46.0439 25.2512 52.8155 23.8577 59.046 20.9775C59.9857 20.5427 60.7735 21.6525 59.8537 22.3922Z" fill="#787878"/>
<path fill-rule="evenodd" clip-rule="evenodd" d="M62.509 20.2612C61.7806 19.3934 57.696 19.8499 55.8614 20.0541C55.3056 20.1162 55.2193 19.6648 55.7204 19.3371C58.9785 17.2071 64.3171 17.8224 64.9376 18.5349C65.5632 19.2545 64.7742 24.2362 61.7204 26.6135C61.2506 26.9794 60.8041 26.7845 61.0122 26.3011C61.6991 24.7045 63.2375 21.129 62.509 20.2612Z" fill="#787878"/>
<path fill-rule="evenodd" clip-rule="evenodd" d="M55.1562 3.5945V1.3755C55.1576 1.03776 55.4173 0.812599 55.7298 0.813286L65.8708 0.812256C66.1949 0.812256 66.4552 1.04394 66.4559 1.37276L66.4552 3.27598C66.4528 3.59519 66.1788 4.01188 65.6916 4.67294L60.4388 12.0288C62.3888 11.9842 64.4514 12.2701 66.2232 13.2469C66.6225 13.4669 66.7296 13.7937 66.7611 14.1132V16.4809C66.7611 16.8073 66.3971 17.1848 66.0146 16.9885C62.893 15.3849 58.751 15.2095 55.2997 17.0077C54.947 17.192 54.5778 16.82 54.5778 16.4936V14.2426C54.5778 13.8826 54.5848 13.2665 54.955 12.7173L61.0411 4.15432L55.7421 4.15329C55.4184 4.15329 55.1583 3.92675 55.1562 3.5945Z" fill="#787878"/>
<path fill-rule="evenodd" clip-rule="evenodd" d="M20.6279 17.0567H17.7342C17.4588 17.0386 17.2385 16.8308 17.2166 16.5659L17.2185 1.66301C17.2185 1.36494 17.4683 1.12647 17.7769 1.12647L20.472 1.12581C20.754 1.14031 20.9805 1.3544 20.9982 1.62612V3.57203H21.0524C21.7549 1.69035 23.0785 0.812256 24.8613 0.812256C26.6714 0.812256 27.8059 1.69035 28.6164 3.57203C29.3186 1.69035 30.9124 0.812256 32.6144 0.812256C33.83 0.812256 35.1536 1.31388 35.9641 2.44296C36.8826 3.69719 36.6939 5.51629 36.6939 7.11571L36.6916 16.5202C36.6916 16.8179 36.4414 17.0567 36.1335 17.0567H33.2428C32.9522 17.0379 32.7231 16.807 32.7231 16.5215L32.7224 8.62092C32.7224 7.9938 32.7766 6.42568 32.6414 5.82985C32.4254 4.82627 31.777 4.544 30.9396 4.544C30.2374 4.544 29.5077 5.01434 29.2106 5.76727C28.9135 6.51988 28.9408 7.77411 28.9408 8.62092V16.5202C28.9408 16.8179 28.6906 17.0567 28.3824 17.0567H25.4919C25.2014 17.0379 24.9723 16.807 24.9723 16.5215L24.9693 8.62092C24.9693 6.95893 25.2395 4.51271 23.1865 4.51271C21.1062 4.51271 21.1873 6.89602 21.1873 8.62092L21.1863 16.5202C21.1867 16.8179 20.9365 17.0567 20.6279 17.0567Z" fill="#787878"/>
<path fill-rule="evenodd" clip-rule="evenodd" d="M75.6685 3.1336C73.5558 3.1336 73.4222 6.13759 73.4222 8.0111C73.4222 9.88495 73.3956 13.8908 75.6419 13.8908C77.8615 13.8908 77.9681 10.6602 77.9681 8.68966C77.9681 7.39768 77.9148 5.84717 77.5405 4.61931C77.2191 3.55329 76.5774 3.1336 75.6685 3.1336ZM75.6419 0C79.8937 0 82.1929 3.81182 82.1929 8.65743C82.1929 13.3412 79.6532 17.0567 75.6419 17.0567C71.4703 17.0567 69.1974 13.2445 69.1974 8.49593C69.1974 3.71479 71.497 0 75.6419 0Z" fill="#787878"/>
<path fill-rule="evenodd" clip-rule="evenodd" d="M87.3093 17.0567H84.354C84.0569 17.0379 83.8217 16.807 83.8217 16.5215L83.817 1.61295C83.8419 1.34056 84.0879 1.12647 84.3867 1.12647L87.1383 1.12581C87.3971 1.13866 87.6107 1.31191 87.6653 1.54312V3.82268H87.7211C88.5519 1.78422 89.7144 0.812256 91.7635 0.812256C93.0922 0.812256 94.394 1.28259 95.2248 2.56845C96.0003 3.7601 96.0003 5.76727 96.0003 7.20958V16.587C95.9667 16.8515 95.7248 17.0567 95.4317 17.0567H92.458C92.1834 17.0392 91.962 16.842 91.9297 16.587V8.49543C91.9297 6.86473 92.1235 4.48142 90.0744 4.48142C89.3543 4.48142 88.6898 4.95176 88.358 5.67307C87.9428 6.58246 87.887 7.49185 87.887 8.49543V16.5202C87.8816 16.8179 87.6252 17.0567 87.3093 17.0567Z" fill="#787878"/>
<path fill-rule="evenodd" clip-rule="evenodd" d="M51.2382 16.6577C51.043 16.8326 50.762 16.8443 50.5422 16.7263C49.5638 15.9122 49.3884 15.536 48.8537 14.7614C47.2365 16.4102 46.0911 16.9045 43.997 16.9045C41.517 16.9045 39.5876 15.3728 39.5876 12.3092C39.5876 9.91563 40.8828 8.28822 42.7293 7.49024C44.3275 6.7879 46.5599 6.66048 48.2683 6.46884V6.08591C48.2683 5.38391 48.3235 4.55415 47.9101 3.9478C47.5516 3.40533 46.8629 3.18192 46.2565 3.18192C45.1331 3.18192 44.1343 3.75817 43.8887 4.95247C43.8379 5.21802 43.6441 5.4809 43.3772 5.49427L40.5219 5.18525C40.281 5.13073 40.013 4.93709 40.0825 4.56886C40.7388 1.10168 43.8667 0.0541992 46.6701 0.0541992C48.1029 0.0541992 49.9768 0.437138 51.1065 1.52241C52.5397 2.86286 52.4017 4.6498 52.4017 6.5966V11.1902C52.4017 12.5718 52.9754 13.1781 53.5137 13.9226C53.7018 14.1908 53.7442 14.5099 53.504 14.7059C52.9022 15.2106 51.8333 16.1403 51.2449 16.664L51.2382 16.6577ZM48.2683 9.46881C48.2683 10.618 48.2957 11.5751 47.717 12.5965C47.2485 13.4263 46.5047 13.9367 45.6777 13.9367C44.548 13.9367 43.8867 13.0748 43.8867 11.7986C43.8867 9.28754 46.1372 8.83069 48.2683 8.83069V9.46881Z" fill="#787878"/>
<path fill-rule="evenodd" clip-rule="evenodd" d="M12.6227 16.6577C12.4276 16.8326 12.1462 16.8443 11.9267 16.7263C10.948 15.9122 10.7729 15.536 10.238 14.7614C8.62138 16.4102 7.47594 16.9045 5.38154 16.9045C2.9012 16.9045 0.972534 15.3728 0.972534 12.3092C0.972534 9.91563 2.26767 8.28822 4.1138 7.49024C5.71234 6.7879 7.94441 6.66048 9.65288 6.46884V6.08591C9.65288 5.38391 9.70801 4.55415 9.29468 3.9478C8.93648 3.40533 8.24714 3.18192 7.64134 3.18192C6.51796 3.18192 5.51854 3.75817 5.27361 4.95247C5.22249 5.21802 5.02902 5.4809 4.76171 5.49427L1.9068 5.18525C1.66554 5.13073 1.39723 4.93709 1.46706 4.56886C2.12299 1.10168 5.25122 0.0541992 8.05434 0.0541992C9.48748 0.0541992 11.3613 0.437138 12.4914 1.52241C13.9242 2.86286 13.7865 4.6498 13.7865 6.5966V11.1902C13.7865 12.5718 14.3596 13.1781 14.8982 13.9226C15.086 14.1908 15.1285 14.5099 14.8885 14.7059C14.2871 15.2106 13.2175 16.1403 12.6297 16.664L12.6227 16.6577ZM9.65288 9.46881C9.65288 10.618 9.68061 11.5751 9.10154 12.5965C8.63341 13.4263 7.88927 13.9367 7.06261 13.9367C5.93287 13.9367 5.27127 13.0748 5.27127 11.7986C5.27127 9.28754 7.52205 8.83069 9.65288 8.83069V9.46881Z" fill="#787878"/>
</svg>
