<svg width="137" height="18" viewBox="0 0 137 18" fill="none" xmlns="http://www.w3.org/2000/svg">
<path d="M5.69365 7.91465C5.54191 7.72317 5.2601 7.68062 5.065 7.82955C4.99997 7.8721 4.95661 7.93593 4.93493 7.99976L1.03295 15.6804C0.924565 15.9145 1.01128 16.1911 1.24973 16.2974C1.31476 16.3187 1.3798 16.34 1.46651 16.34H6.9076C7.08102 16.34 7.25445 16.2549 7.31948 16.0847C8.4684 13.7018 7.75303 10.0848 5.69365 7.91465Z" fill="#787878"/>
<path d="M8.72184 0.269744C6.68796 3.39945 6.4421 7.35042 8.09603 10.7021L10.8004 16.0736C10.8898 16.229 11.0463 16.34 11.2251 16.34H16.835C17.1032 16.34 17.3267 16.118 17.3267 15.8517C17.3267 15.7851 17.3044 15.6963 17.282 15.6297C17.282 15.6297 9.7276 0.624888 9.5488 0.247548C9.43705 0.0255828 9.16884 -0.0632031 8.94534 0.0477793C8.83359 0.114369 8.76654 0.180958 8.72184 0.269744Z" fill="#787878"/>
<path fill-rule="evenodd" clip-rule="evenodd" d="M86.1028 12.7838C86.1028 12.7881 86.1029 12.7924 86.1029 12.7967L75.8708 6.83893C75.8707 6.82614 75.8707 6.81334 75.8707 6.80051L86.1028 12.7838ZM86.1028 12.7838L86.1248 12.7967C86.1248 15.42 84.6317 17.2001 80.9209 17.2001C78.286 17.2001 76.8807 16.5677 75.8048 16.0055V12.6093C77.3857 13.5696 79.1643 14.0849 80.9648 14.1083C82.4579 14.1083 82.8971 13.6164 82.8971 12.8903C82.8971 12.1408 82.4579 11.7661 80.328 11.2976C76.7928 10.5527 75.8819 8.90553 75.8708 6.83893L75.8048 6.80051C75.8048 4.1772 77.5834 2.58448 81.0307 2.58448C82.5457 2.53763 84.0389 2.86554 85.4222 3.5448V6.82394C83.9949 6.12126 82.4799 5.62939 80.9429 5.62939C79.6693 5.62939 78.9886 5.98073 78.9886 6.80051C78.9886 7.43292 79.4717 7.90137 81.382 8.3464C84.8672 9.14138 86.0986 10.3098 86.1028 12.7838Z" fill="#787878"/>
<path d="M124.824 2.58008V16.3401H127.765V5.85519L128.997 8.62993L133.17 16.3401H136.864V2.58008H133.922V11.4729L132.805 8.88011L129.453 2.58008H124.824Z" fill="#787878"/>
<rect x="102.464" y="2.58008" width="3.44" height="13.76" fill="#787878"/>
<path d="M99.8845 12.7967C99.8845 10.3139 98.558 9.14276 94.7919 8.3464C92.7312 7.90137 92.2101 7.43292 92.2101 6.80051C92.2101 5.98073 92.9443 5.62939 94.3182 5.62939C95.9762 5.62939 97.6106 6.12126 99.1502 6.82394V3.5448C97.6579 2.86554 96.0473 2.53763 94.4129 2.58448C90.6941 2.58448 88.7755 4.1772 88.7755 6.80051C88.7755 8.88511 89.7467 10.5481 93.5839 11.2976C95.8815 11.7661 96.3552 12.1408 96.3552 12.8903C96.3552 13.6164 95.8815 14.1083 94.2708 14.1083C92.3285 14.0849 90.4099 13.5696 88.7045 12.6093V16.0055C89.8651 16.5677 91.381 17.2001 94.2234 17.2001C98.2975 17.1767 99.8845 15.42 99.8845 12.7967Z" fill="#787878"/>
<path d="M50.8655 2.58008V16.3401H57.5658L58.6055 13.3606H54.1463V2.58008H50.8655Z" fill="#787878"/>
<path d="M37.9658 2.58008V5.55952H41.4427V16.3401H44.5875V5.55952H48.2858V2.58008H37.9658Z" fill="#787878"/>
<path fill-rule="evenodd" clip-rule="evenodd" d="M28.9814 2.58008H33.1909L37.9662 16.3401H34.3225L33.6435 14.0202C31.9688 14.5206 30.2035 14.5206 28.5288 14.0202L27.8499 16.3401H24.2062L28.9814 2.58008ZM29.3209 11.291C29.9093 11.4502 30.4978 11.5411 31.0862 11.5411C31.6746 11.5411 32.263 11.4729 32.8514 11.291L31.0862 5.28659L29.3209 11.291Z" fill="#787878"/>
<path fill-rule="evenodd" clip-rule="evenodd" d="M64.2406 2.58008H68.4501L73.2253 16.3401H69.5816L68.9027 14.0202C67.228 14.5206 65.4627 14.5206 63.788 14.0202L63.109 16.3401H59.4653L64.2406 2.58008ZM64.5801 11.291C65.1685 11.4502 65.7569 11.5411 66.3453 11.5411C66.9338 11.5411 67.5222 11.4729 68.1106 11.291L66.3453 5.28659L64.5801 11.291Z" fill="#787878"/>
<path fill-rule="evenodd" clip-rule="evenodd" d="M113.259 2.58008H117.469L122.244 16.3401H118.6L117.921 14.0202C116.247 14.5206 114.481 14.5206 112.807 14.0202L112.128 16.3401H108.484L113.259 2.58008ZM113.599 11.291C114.187 11.4502 114.776 11.5411 115.364 11.5411C115.952 11.5411 116.541 11.4729 117.129 11.291L115.364 5.28659L113.599 11.291Z" fill="#787878"/>
</svg>
