<svg width="97" height="20" viewBox="0 0 97 20" fill="none" xmlns="http://www.w3.org/2000/svg">
<path d="M16.5949 18.0528C12.1489 18.0528 8.54576 14.4478 8.54576 10.001C8.54576 5.55391 12.1489 1.95231 16.5949 1.95231C18.1619 1.95231 19.625 2.39923 20.861 3.17392L16.5949 10.001L24.6262 5.36361C23.7536 3.97334 22.5021 2.7754 20.9889 1.86636C19.0632 0.713483 16.3845 0 13.4225 0C9.19732 0 5.49053 1.53538 3.42336 3.83469C1.89288 5.53442 0.981689 7.67368 0.981689 10.0008C0.981689 12.3297 1.89288 14.4705 3.42336 16.1714C5.49591 18.4736 9.14748 20 13.303 20C17.4579 20 21.1084 18.4724 23.1823 16.1714C23.2958 16.0447 23.4058 15.9168 23.5098 15.7841L23.1966 14.6103C21.7395 16.6902 19.3262 18.0528 16.5949 18.0528Z" fill="#787878"/>
<path d="M43.2211 19.5158L39.8503 6.94111C39.3088 4.90907 37.4585 3.41553 35.2555 3.41553C34.6841 3.41553 34.1367 3.51761 33.6287 3.7024L26.3719 6.34118H33.8355L35.1109 11.1043C33.8737 10.0395 32.2624 9.39162 30.4982 9.39162C26.9947 9.39162 24.1582 11.7393 24.1582 14.6353C24.1582 17.5316 26.9947 19.8828 30.4982 19.8828C33.0203 19.8828 35.2507 18.648 36.6265 16.7511L37.3664 19.5158H43.2211ZM32.939 17.5627C31.3229 17.5627 30.0129 16.2538 30.0129 14.6353C30.0129 13.0193 31.3229 11.7092 32.939 11.7092C34.555 11.7092 35.8663 13.0193 35.8663 14.6353C35.8663 16.2538 34.555 17.5627 32.939 17.5627Z" fill="#787878"/>
<path d="M56.9643 3.41772C56.5221 3.41772 56.1037 3.5155 55.7308 3.69061L51.0714 5.86202C50.8407 4.47498 49.6359 3.41772 48.1824 3.41772C47.7425 3.41772 47.3229 3.5155 46.9452 3.69061L41.2567 6.34122H45.2562V19.516H51.1109V7.80692C51.1109 6.99901 51.7647 6.34134 52.5751 6.34134C53.3808 6.34134 54.0394 6.99901 54.0394 7.80692V19.516H59.8917V6.34122C59.8917 4.72552 58.5804 3.41784 56.9643 3.41784" fill="#787878"/>
<path d="M78.9158 11.7091C78.9158 16.2885 75.2043 20 70.6263 20C66.0446 20 62.3308 16.2885 62.3308 11.7091C62.3308 7.13097 66.0446 3.41772 70.6263 3.41772C75.2043 3.41772 78.9158 7.13109 78.9158 11.7091ZM70.9694 5.9341C70.7088 4.95848 69.7059 4.37936 68.7305 4.64161C67.7563 4.90278 67.1742 5.90625 67.436 6.88175L70.2797 17.4838C70.5426 18.4604 71.5431 19.0389 72.5185 18.7807C73.4938 18.5166 74.0736 17.5137 73.8118 16.5383L70.9694 5.9341Z" fill="#787878"/>
<path d="M93.6786 3.41772C93.2352 3.41772 92.8144 3.5155 92.4355 3.69061L87.781 5.86202C87.5515 4.47498 86.3466 3.41772 84.8931 3.41772C84.4532 3.41772 84.0336 3.5155 83.6547 3.69061L77.9686 6.34122H81.9669V19.516H87.8204V7.80692C87.8204 6.99901 88.4754 6.34134 89.2859 6.34134C90.0939 6.34134 90.7477 6.99901 90.7477 7.80692V19.516H96.6048V6.34122C96.6048 4.72552 95.2923 3.41784 93.6786 3.41784" fill="#787878"/>
</svg>
