<svg width="768" height="768" viewBox="0 0 768 768" fill="none" xmlns="http://www.w3.org/2000/svg">
<g opacity="0.6">
<path opacity="0.8" d="M383.5 726.999C337.705 727.087 292.363 717.917 250.19 700.041C209.488 682.831 172.512 657.869 141.313 626.54C110.029 595.296 85.1003 558.266 67.9113 517.505C50.0638 475.269 40.9109 429.861 41.0007 384C40.9109 338.139 50.0638 292.731 67.9113 250.495C85.0986 209.734 110.027 172.703 141.313 141.46C172.511 110.128 209.488 85.163 250.19 67.9506C292.364 50.0771 337.705 40.9108 383.5 41.0007C429.295 40.9108 474.636 50.0771 516.81 67.9506C557.511 85.1647 594.488 110.13 625.687 141.46C656.969 172.704 681.895 209.734 699.08 250.495C716.934 292.729 726.09 338.138 725.999 384C726.09 429.862 716.934 475.271 699.08 517.505C681.894 558.265 656.969 595.296 625.687 626.54C594.488 657.868 557.511 682.83 516.81 700.041C474.637 717.917 429.295 727.087 383.5 726.999ZM383.5 41.8764C195.126 41.8764 41.8751 195.351 41.8751 384C41.8751 572.649 195.126 726.132 383.5 726.132C571.874 726.132 725.133 572.675 725.133 384.009C725.133 195.342 571.874 41.885 383.5 41.885V41.8764Z" fill="url(#paint0_linear_120_100)"/>
<path opacity="0.6" d="M384.008 767.999C332.661 768.1 281.821 757.835 234.535 737.819C188.907 718.55 147.454 690.603 112.481 655.53C77.4125 620.552 49.4683 579.098 30.199 533.47C10.1786 486.186 -0.0925437 435.348 0.000637277 384C-0.093205 332.647 10.1779 281.803 30.199 234.513C49.4734 188.883 77.4235 147.43 112.498 112.453C147.47 77.3899 188.915 49.4493 234.535 30.1812C281.822 10.1688 332.661 -0.0962551 384.008 0.00070372C435.356 -0.0979029 486.195 10.1672 533.482 30.1812C579.11 49.4554 620.564 77.4016 655.545 112.47C690.615 147.444 718.564 188.891 737.844 234.513C757.85 281.806 768.107 332.65 767.999 384C768.106 435.345 757.85 486.183 737.844 533.47C718.566 579.098 690.616 620.551 655.545 655.53C620.567 690.602 579.112 718.548 533.482 737.819C486.197 757.837 435.356 768.102 384.008 767.999ZM384.008 0.858592C172.74 0.858592 0.858544 172.745 0.858544 384C0.858544 595.255 172.74 767.141 384.008 767.141C595.277 767.141 767.141 595.263 767.141 384C767.141 172.745 595.277 0.858592 384.008 0.858592Z" fill="url(#paint1_linear_120_100)"/>
<path d="M395.996 698.999C355.484 699.075 315.374 690.989 278.065 675.228C242.059 660.049 209.346 638.038 181.74 610.415C154.065 582.855 132.014 550.192 116.812 514.24C101.018 476.992 92.919 436.944 93.0006 396.496C92.9199 356.048 101.019 316 116.812 278.751C132.019 242.807 154.069 210.15 181.74 182.594C209.343 154.965 242.057 132.951 278.065 117.772C315.373 102.007 355.484 93.9212 395.996 94.0006C436.511 93.9191 476.625 102.004 513.935 117.772C549.94 132.952 582.651 154.966 610.251 182.594C637.922 210.152 659.976 242.808 675.189 278.751C690.977 316.001 699.076 356.048 699 396.496C699.076 436.943 690.977 476.99 675.189 514.24C659.981 550.192 637.927 582.854 610.251 610.415C582.65 638.043 549.94 660.06 513.935 675.245C476.622 691.002 436.509 699.081 395.996 698.999ZM395.996 94.8572C229.396 94.8572 93.8587 230.206 93.8587 396.496C93.8587 562.786 229.431 698.143 395.996 698.143C562.561 698.143 698.141 562.794 698.141 396.496C698.141 230.197 562.595 94.8572 395.996 94.8572Z" fill="url(#paint2_linear_120_100)"/>
</g>
<defs>
<linearGradient id="paint0_linear_120_100" x1="41.0178" y1="384.009" x2="725.991" y2="384.009" gradientUnits="userSpaceOnUse">
<stop offset="0.01" stop-color="#ECC63D"/>
<stop offset="0.25" stop-color="#FDF9CB"/>
<stop offset="0.31" stop-color="#F4EDBA"/>
<stop offset="0.42" stop-color="#DECC8D"/>
<stop offset="0.57" stop-color="#B99845"/>
<stop offset="0.6" stop-color="#B38F39"/>
<stop offset="0.87" stop-color="#E5D389"/>
<stop offset="1" stop-color="#FDF9CB"/>
</linearGradient>
<linearGradient id="paint1_linear_120_100" x1="0.000637278" y1="384" x2="768.016" y2="384" gradientUnits="userSpaceOnUse">
<stop offset="0.01" stop-color="#ECC63D"/>
<stop offset="0.25" stop-color="#FDF9CB"/>
<stop offset="0.31" stop-color="#F4EDBA"/>
<stop offset="0.42" stop-color="#DECC8D"/>
<stop offset="0.57" stop-color="#B99845"/>
<stop offset="0.6" stop-color="#B38F39"/>
<stop offset="0.87" stop-color="#E5D389"/>
<stop offset="1" stop-color="#FDF9CB"/>
</linearGradient>
<linearGradient id="paint2_linear_120_100" x1="93.9702" y1="420.978" x2="698.017" y2="371.861" gradientUnits="userSpaceOnUse">
<stop offset="0.01" stop-color="#ECC63D"/>
<stop offset="0.25" stop-color="#FDF9CB"/>
<stop offset="0.31" stop-color="#F4EDBA"/>
<stop offset="0.42" stop-color="#DECC8D"/>
<stop offset="0.57" stop-color="#B99845"/>
<stop offset="0.6" stop-color="#B38F39"/>
<stop offset="0.87" stop-color="#E5D389"/>
<stop offset="1" stop-color="#FDF9CB"/>
</linearGradient>
</defs>
</svg>
