<svg width="99" height="32" viewBox="0 0 99 32" fill="none" xmlns="http://www.w3.org/2000/svg">
<path d="M42.5915 16.8399C42.5915 21.4438 38.9899 24.8363 34.5698 24.8363C30.1498 24.8363 26.5482 21.4438 26.5482 16.8399C26.5482 12.2036 30.1498 8.84351 34.5698 8.84351C38.9899 8.84351 42.5915 12.2036 42.5915 16.8399ZM39.08 16.8399C39.08 13.9629 36.9926 11.9945 34.5698 11.9945C32.1471 11.9945 30.0597 13.9629 30.0597 16.8399C30.0597 19.688 32.1471 21.6853 34.5698 21.6853C36.9926 21.6853 39.08 19.6844 39.08 16.8399Z" fill="#787878"/>
<path d="M59.8962 16.8399C59.8962 21.4438 56.2945 24.8363 51.8745 24.8363C47.4545 24.8363 43.8529 21.4438 43.8529 16.8399C43.8529 12.2072 47.4545 8.84351 51.8745 8.84351C56.2945 8.84351 59.8962 12.2036 59.8962 16.8399ZM56.3847 16.8399C56.3847 13.9629 54.2972 11.9945 51.8745 11.9945C49.4518 11.9945 47.3644 13.9629 47.3644 16.8399C47.3644 19.688 49.4518 21.6853 51.8745 21.6853C54.2972 21.6853 56.3847 19.6844 56.3847 16.8399Z" fill="#787878"/>
<path d="M76.4797 9.32661V23.6826C76.4797 29.588 72.997 31.9999 68.8799 31.9999C65.0043 31.9999 62.6717 29.4077 61.792 27.2878L64.8492 26.0152C65.3936 27.3167 66.7276 28.8525 68.8763 28.8525C71.5117 28.8525 73.1449 27.2266 73.1449 24.1657V23.0157H73.0223C72.2363 23.9855 70.7221 24.8327 68.8114 24.8327C64.8132 24.8327 61.1503 21.35 61.1503 16.8687C61.1503 12.355 64.8132 8.84351 68.8114 8.84351C70.7185 8.84351 72.2327 9.69073 73.0223 10.6317H73.1449V9.33021H76.4797V9.32661ZM73.3936 16.8687C73.3936 14.0531 71.5153 11.9945 69.125 11.9945C66.7023 11.9945 64.6726 14.0531 64.6726 16.8687C64.6726 19.6556 66.7023 21.6853 69.125 21.6853C71.5153 21.6853 73.3936 19.6556 73.3936 16.8687Z" fill="#787878"/>
<path d="M81.9772 0.912109V24.3461H78.5522V0.912109H81.9772Z" fill="#787878"/>
<path d="M95.3237 19.4719L98.0492 21.2889C97.1696 22.5904 95.0497 24.8329 91.3868 24.8329C86.8442 24.8329 83.4517 21.3214 83.4517 16.8365C83.4517 12.0812 86.873 8.84009 90.9938 8.84009C95.1434 8.84009 97.1732 12.1425 97.8365 13.9271L98.2007 14.8356L87.5111 19.2628C88.3295 20.8671 89.6022 21.6855 91.3868 21.6855C93.175 21.6855 94.4152 20.8058 95.3237 19.4719ZM86.9343 16.5949L94.0799 13.6278C93.6869 12.6292 92.5044 11.9334 91.1128 11.9334C89.3282 11.9334 86.8442 13.5089 86.9343 16.5949Z" fill="#787878"/>
<path d="M13.5845 14.7598V11.3673H25.0167C25.1285 11.9585 25.1861 12.658 25.1861 13.4151C25.1861 15.9603 24.4903 19.1077 22.2479 21.3502C20.0667 23.6215 17.2799 24.8328 13.5881 24.8328C6.7454 24.8328 0.991455 19.2591 0.991455 12.4164C0.991455 5.57368 6.7454 0 13.5881 0C17.3736 0 20.0703 1.48535 22.0965 3.42136L19.7026 5.81523C18.2497 4.45246 16.2812 3.39252 13.5845 3.39252C8.58767 3.39252 4.6796 7.41956 4.6796 12.4164C4.6796 17.4132 8.58767 21.4403 13.5845 21.4403C16.8256 21.4403 18.6715 20.1388 19.854 18.9563C20.813 17.9973 21.4439 16.6273 21.6927 14.7562L13.5845 14.7598Z" fill="#787878"/>
</svg>
