<svg width="18" height="18" viewBox="0 0 18 18" fill="none" xmlns="http://www.w3.org/2000/svg">
<path d="M4.92448 3.42666C4.92448 4.40793 4.07394 5.20342 3.02474 5.20342C1.97554 5.20342 1.125 4.40793 1.125 3.42666C1.125 2.44538 1.97554 1.6499 3.02474 1.6499C4.07394 1.6499 4.92448 2.44538 4.92448 3.42666Z" fill="#F4F4F4"/>
<path d="M1.38479 6.50941H4.63222V16.3499H1.38479V6.50941Z" fill="#F4F4F4"/>
<path d="M9.86057 6.50941H6.61314V16.3499H9.86057C9.86057 16.3499 9.86057 13.252 9.86057 11.315C9.86057 10.1524 10.2575 8.98472 11.8415 8.98472C13.6316 8.98472 13.6208 10.5062 13.6124 11.6849C13.6015 13.2256 13.6276 14.7978 13.6276 16.3499H16.875V11.1563C16.8475 7.84005 15.9834 6.31199 13.1405 6.31199C11.4522 6.31199 10.4056 7.07847 9.86057 7.77192V6.50941Z" fill="#F4F4F4"/>
</svg>
