<svg width="131" height="31" viewBox="0 0 131 31" fill="none" xmlns="http://www.w3.org/2000/svg">
<path fill-rule="evenodd" clip-rule="evenodd" d="M74.4875 20.4873C74.4875 20.7451 74.4634 21.0128 74.3961 21.2444C74.1116 22.2128 73.1339 23.0331 71.9134 23.0331C70.8969 23.0331 70.0852 22.4376 70.0852 21.1812C70.0852 19.2595 72.1445 18.7286 74.4875 18.7414V20.4873ZM78.1615 17.1392C78.1615 13.9686 76.8438 11.1799 72.3938 11.1799C70.11 11.1799 68.2949 11.8393 67.3055 12.4265L68.0295 14.9746C68.9341 14.3874 70.3762 13.9017 71.7401 13.9017C73.9983 13.8964 74.3676 15.2167 74.3676 16.0625V16.2625C69.4453 16.2543 66.3358 18.0061 66.3358 21.576C66.3358 23.7564 67.9205 25.7999 70.6731 25.7999C72.3682 25.7999 73.784 25.1045 74.6323 23.9917H74.7179C74.7179 23.9917 75.2788 26.4074 78.3758 25.4849C78.2149 24.4782 78.1615 23.4037 78.1615 22.1135V17.1392Z" fill="#787878"/>
<path fill-rule="evenodd" clip-rule="evenodd" d="M0.977539 7.73999C0.977539 7.73999 4.16891 20.7452 4.67843 22.8563C5.27286 25.3204 6.34415 26.2262 9.43318 25.6163L11.4255 17.5529C11.9314 15.5486 12.2696 14.1217 12.5941 12.0842H12.6514C12.8786 14.1426 13.2045 15.5551 13.6204 17.5594C13.6204 17.5594 14.4311 21.2194 14.847 23.1421C15.2643 25.0634 16.4227 26.276 19.4479 25.6163L24.1975 7.73999H20.3631L18.7417 15.4685C18.3047 17.7175 17.9113 19.4764 17.605 21.5348H17.5513C17.2733 19.4966 16.9221 17.8084 16.4779 15.6172L14.7904 7.73999H10.7941L8.98972 15.418C8.47802 17.7514 7.99972 19.6359 7.69488 21.6228H7.64044C7.32835 19.7513 6.91246 17.3833 6.46464 15.1249C6.46464 15.1249 5.39044 9.63386 5.01447 7.73999" fill="#787878"/>
<path fill-rule="evenodd" clip-rule="evenodd" d="M31.4867 20.4873C31.4867 20.7451 31.4655 21.0128 31.3953 21.2444C31.1108 22.2128 30.1346 23.0331 28.9141 23.0331C27.8955 23.0331 27.0868 22.4376 27.0868 21.1812C27.0868 19.2595 29.1445 18.7286 31.4867 18.7414V20.4873ZM35.1605 17.1392C35.1605 13.9686 33.8435 11.1799 29.3938 11.1799C27.108 11.1799 25.2952 11.8393 24.3044 12.4265L25.0298 14.9746C25.9343 14.3874 27.3749 13.9017 28.7401 13.9017C30.9989 13.8964 31.3682 15.2167 31.3682 16.0625V16.2625C26.4454 16.2543 23.3369 18.0061 23.3369 21.576C23.3369 23.7564 24.9201 25.7999 27.6725 25.7999C29.3661 25.7999 30.7832 25.1045 31.6322 23.9917H31.7148C31.7148 23.9917 32.2779 26.4074 35.3769 25.4849C35.2131 24.4782 35.1605 23.4037 35.1605 22.1135V17.1392Z" fill="#787878"/>
<path fill-rule="evenodd" clip-rule="evenodd" d="M41.3965 21.9649V7.73999H37.9565V25.8H41.3965" fill="#787878"/>
<path fill-rule="evenodd" clip-rule="evenodd" d="M90.4152 7.73999V20.8431C90.4152 22.6465 90.7637 23.9135 91.5123 24.6871C92.1637 25.3619 93.2388 25.8 94.5268 25.8C95.6247 25.8 96.7035 25.5978 97.2097 25.4135L97.1618 22.5948C96.7845 22.6852 96.3483 22.7576 95.7537 22.7576C94.4922 22.7576 94.0692 21.9717 94.0692 20.3491V15.3384H97.2952V11.9397H94.0692V7.73999" fill="#787878"/>
<path fill-rule="evenodd" clip-rule="evenodd" d="M80.9554 12.3438V25.8H84.639V18.9092C84.639 18.5375 84.6624 18.2127 84.7193 17.9162C84.9934 16.4727 86.0766 15.5513 87.6343 15.5513C88.0612 15.5513 88.3673 15.5976 88.6954 15.646V12.1232C88.4199 12.0654 88.2309 12.04 87.885 12.04C86.5085 12.04 84.9444 12.9426 84.2881 14.8816H84.1873V12.3438" fill="#787878"/>
<path fill-rule="evenodd" clip-rule="evenodd" d="M43.9764 12.3438V25.8H47.7342V17.9083C47.7342 17.5387 47.7773 17.146 47.9111 16.8075C48.2232 16.0127 48.9828 15.0819 50.1942 15.0819C51.7104 15.0819 52.4202 16.3287 52.4202 18.131V25.8H56.1734V17.8128C56.1734 17.4599 56.2232 17.0353 56.331 16.7214C56.6387 15.8174 57.457 15.0819 58.5852 15.0819C60.1229 15.0819 60.8602 16.3085 60.8602 18.4268V25.8H64.6164V17.875C64.6164 13.694 62.4351 12.04 59.9743 12.04C58.8832 12.04 58.0226 12.3055 57.2452 12.7705C56.5904 13.1618 56.0055 13.7157 55.4934 14.4462H55.4384C54.8438 12.9961 53.4473 12.04 51.6264 12.04C49.2882 12.04 48.2381 13.1929 47.5989 14.1721H47.5432V12.3438" fill="#787878"/>
<path fill-rule="evenodd" clip-rule="evenodd" d="M117.502 10.32C118.237 10.32 118.845 9.9465 118.927 9.46455L119.654 1.44299C119.654 0.650746 118.702 0 117.503 0C116.307 0 115.354 0.650746 115.354 1.44299L116.081 9.46455C116.161 9.9465 116.769 10.32 117.506 10.32" fill="#787878"/>
<path fill-rule="evenodd" clip-rule="evenodd" d="M112.525 12.8831C112.879 12.2162 112.851 11.4645 112.477 11.1322L105.962 6.16861C105.285 5.74457 104.269 6.2565 103.691 7.34281C103.115 8.4268 103.215 9.63878 103.892 10.0644L111.105 13.7119C111.559 13.8946 112.173 13.5446 112.527 12.88" fill="#787878"/>
<path fill-rule="evenodd" clip-rule="evenodd" d="M121.621 12.88C121.978 13.5445 122.589 13.8946 123.041 13.7119L130.257 10.0643C130.936 9.63873 131.034 8.42673 130.456 7.34272C129.879 6.25717 128.864 5.74447 128.186 6.16851L121.67 11.1321C121.297 11.4644 121.272 12.2161 121.623 12.883" fill="#787878"/>
<path fill-rule="evenodd" clip-rule="evenodd" d="M117.502 20.6399C118.237 20.6399 118.845 21.0133 118.927 21.4952L119.654 29.5157C119.654 30.3078 118.702 30.9599 117.503 30.9599C116.307 30.9599 115.354 30.3078 115.354 29.5157L116.081 21.4952C116.161 21.0133 116.769 20.6399 117.506 20.6399" fill="#787878"/>
<path fill-rule="evenodd" clip-rule="evenodd" d="M121.621 17.2208C121.978 16.5531 122.589 16.2062 123.041 16.3881L130.257 20.0347C130.936 20.461 131.034 21.6729 130.456 22.7584C129.879 23.8416 128.864 24.3558 128.186 23.9318L121.67 18.9685C121.297 18.6347 121.272 17.8838 121.623 17.2177" fill="#787878"/>
<path fill-rule="evenodd" clip-rule="evenodd" d="M112.525 17.2187C112.879 17.8849 112.851 18.6351 112.477 18.9698L105.962 23.9314C105.285 24.3555 104.269 23.8435 103.691 22.7602C103.115 21.6746 103.215 20.461 103.892 20.0346L111.105 16.3891C111.559 16.2048 112.173 16.5533 112.527 17.221" fill="#787878"/>
</svg>
